<svg width="59" height="56" viewBox="0 0 59 56" fill="none" xmlns="http://www.w3.org/2000/svg">
<path d="M15 56C23.2843 56 30 49.2843 30 41C30 32.7157 23.2843 26 15 26C6.71573 26 0 32.7157 0 41C0.00964345 49.2803 6.71973 55.9904 15 56ZM15 27.6667C22.3638 27.6667 28.3333 33.6362 28.3333 41C28.3333 48.3638 22.3638 54.3333 15 54.3333C7.6362 54.3333 1.66667 48.3638 1.66667 41C1.67539 33.6398 7.63982 27.6754 15 27.6667Z" fill="#023E7D"/>
<path d="M26 11H52" stroke="#023E7D" stroke-width="2" stroke-linecap="round" stroke-linejoin="round"/>
<path d="M26 21H52" stroke="#023E7D" stroke-width="2" stroke-linecap="round" stroke-linejoin="round"/>
<path d="M30 31L52 31" stroke="#023E7D" stroke-width="2" stroke-linecap="round" stroke-linejoin="round"/>
<rect x="14.5" y="7.5" width="7" height="7" rx="0.5" stroke="#023E7D"/>
<path d="M17.2342 22.3731C17.1719 22.4358 17.0869 22.4708 16.9985 22.4708C16.9102 22.4708 16.8252 22.4358 16.7629 22.3731L14.8809 20.4908C14.6855 20.2954 14.6855 19.9788 14.8809 19.7838L15.1165 19.5481C15.3119 19.3528 15.6282 19.3528 15.8235 19.5481L16.9985 20.7231L20.1735 17.5481C20.3689 17.3528 20.6855 17.3528 20.8805 17.5481L21.1162 17.7838C21.3115 17.9791 21.3115 18.2958 21.1162 18.4908L17.2342 22.3731Z" fill="#023E7D"/>
<path d="M16.648 34L16.268 43.101H13.513L13.133 34H16.648ZM14.938 47.965C14.368 47.965 13.8993 47.8003 13.532 47.471C13.1773 47.129 13 46.711 13 46.217C13 45.7103 13.1773 45.286 13.532 44.944C13.8993 44.602 14.368 44.431 14.938 44.431C15.4953 44.431 15.9513 44.602 16.306 44.944C16.6733 45.286 16.857 45.7103 16.857 46.217C16.857 46.711 16.6733 47.129 16.306 47.471C15.9513 47.8003 15.4953 47.965 14.938 47.965Z" fill="#023E7D"/>
<path d="M23.4379 54.0289H52.6039C53.3186 54.0341 54.0274 53.9251 54.6893 53.7085C55.3511 53.4919 55.9527 53.1719 56.4592 52.7671C56.9657 52.3623 57.367 51.8807 57.6397 51.3504C57.9125 50.82 58.0513 50.2514 58.0481 49.6777V4.33196C58.0481 3.18305 57.4796 2.0812 56.4676 1.2688C55.4556 0.456402 54.0831 0 52.652 0H15.3961C13.967 -2.8453e-06 12.5963 0.455074 11.5847 1.26539C10.5731 2.07571 10.0032 3.17508 10 4.32232V27.2481C10.1942 27.1632 10.3905 27.0824 10.5889 27.0056V4.34161C10.5889 3.31809 11.0954 2.33648 11.9969 1.61274C12.8984 0.888996 14.1211 0.482401 15.3961 0.482401H52.652C53.9269 0.482401 55.1497 0.888996 56.0512 1.61274C56.9527 2.33648 57.4592 3.31809 57.4592 4.34161V49.6873C57.4592 50.7109 56.9527 51.6925 56.0512 52.4162C55.1497 53.1399 53.9269 53.5465 52.652 53.5465H24.2239C23.9673 53.7151 23.7051 53.876 23.4379 54.0289Z" fill="#023E7D"/>
</svg>
