<svg width="48" height="55" viewBox="0 0 48 55" fill="none" xmlns="http://www.w3.org/2000/svg">
<path d="M24 20.618L26.6677 28.8283L26.7799 29.1738H27.1432H35.776L28.7919 34.248L28.498 34.4615L28.6103 34.807L31.2779 43.0172L24.2939 37.943L24 37.7295L23.7061 37.943L16.7221 43.0172L19.3897 34.807L19.502 34.4615L19.2081 34.248L12.2241 29.1738H20.8568H21.2201L21.3323 28.8283L24 20.618Z" stroke="black"/>
<path d="M13 19C13 21.2091 11.2091 23 9 23C6.79086 23 5 21.2091 5 19V5C5 2.79086 6.79086 1 9 1C11.2091 1 13 2.79086 13 5V11.5" stroke="black"/>
<path d="M4 11C1.79086 11 0 12.7909 0 15V51C0 53.2091 1.79086 55 4 55H44C46.2091 55 48 53.2091 48 51V15C48 12.7909 46.2091 11 44 11H4V12H44C45.6569 12 47 13.3431 47 15V51C47 52.6569 45.6569 54 44 54H4C2.34315 54 1 52.6569 1 51V15C1 13.3431 2.34315 12 4 12V11Z" fill="#040200"/>
</svg>
