<svg width="58" height="55" viewBox="0 0 58 55" fill="none" xmlns="http://www.w3.org/2000/svg">
<path d="M16.75 9.99609H15.0833C14.6231 9.99609 14.25 10.3692 14.25 10.8294C14.25 11.2897 14.6231 11.6628 15.0833 11.6628H16.75C17.2102 11.6628 17.5833 11.2897 17.5833 10.8294C17.5833 10.3692 17.2102 9.99609 16.75 9.99609Z" fill="#040200"/>
<path d="M45.0833 9.99609H20.0833C19.6231 9.99609 19.25 10.3692 19.25 10.8294C19.25 11.2897 19.6231 11.6628 20.0833 11.6628H45.0833C45.5436 11.6628 45.9167 11.2897 45.9167 10.8294C45.9167 10.3692 45.5436 9.99609 45.0833 9.99609Z" fill="#040200"/>
<path d="M16.75 15.0002H15.0833C14.6231 15.0002 14.25 15.3733 14.25 15.8336C14.25 16.2938 14.6231 16.6669 15.0833 16.6669H16.75C17.2102 16.6669 17.5833 16.2938 17.5833 15.8336C17.5833 15.3733 17.2102 15.0002 16.75 15.0002Z" fill="#040200"/>
<path d="M40.0833 15.8336C40.0833 15.3733 39.7102 15.0002 39.25 15.0002H20.0833C19.6231 15.0002 19.25 15.3733 19.25 15.8336C19.25 16.2938 19.6231 16.6669 20.0833 16.6669H39.25C39.7102 16.6669 40.0833 16.2938 40.0833 15.8336Z" fill="#040200"/>
<path d="M16.75 19.9976H15.0833C14.6231 19.9976 14.25 20.3707 14.25 20.8309C14.25 21.2911 14.6231 21.6642 15.0833 21.6642H16.75C17.2102 21.6642 17.5833 21.2911 17.5833 20.8309C17.5833 20.3707 17.2102 19.9976 16.75 19.9976Z" fill="#040200"/>
<path d="M20.0833 19.9976C19.6231 19.9976 19.25 20.3707 19.25 20.8309C19.25 21.2911 19.6231 21.6642 20.0833 21.6642H25.0833C25.5436 21.6642 25.9167 21.2911 25.9167 20.8309C25.9167 20.3707 25.5436 19.9976 25.0833 19.9976H20.0833Z" fill="#040200"/>
<path d="M52 29.25C52 28.5596 51.5523 28 51 28C50.4477 28 50 28.5596 50 29.25V46.75C50 47.4404 50.4477 48 51 48C51.5523 48 52 47.4404 52 46.75V29.25Z" fill="#040200"/>
<path d="M21.2729 46.015C21.1031 46.015 20.9653 46.1528 20.9653 46.3227V49.2148C20.9653 49.3085 20.8891 49.3847 20.7955 49.3847H19.1419V43.3268C19.1419 43.1569 19.0041 43.0192 18.8342 43.0192C18.6644 43.0192 18.5266 43.1569 18.5266 43.3268V49.3847H15.1968L16.1624 48.3224C16.2679 48.2063 16.3176 48.041 16.2955 47.88C16.295 47.8769 16.2945 47.8738 16.294 47.8706L15.3743 42.4374L15.6221 42.0644C15.7591 42.1617 15.8646 42.2554 16.0625 42.2554C16.2638 42.2554 16.452 42.1427 16.5447 41.9572V41.9572L17.5147 40.0131L19.7244 40.8689C19.8044 40.9031 20.9652 41.4259 20.9652 42.8064V44.8871C20.9652 45.0569 21.1029 45.1947 21.2729 45.1947C21.4427 45.1947 21.5805 45.057 21.5805 44.8871V42.8064C21.5805 40.9876 20.0232 40.3264 19.9569 40.2991C19.9549 40.2983 19.953 40.2975 19.951 40.2968L16.2732 38.8725V38.0099C16.8574 37.5557 17.2624 36.8822 17.3641 36.1139C17.6553 36.0934 17.9256 35.9846 18.1463 35.7949C18.4345 35.547 18.5999 35.1863 18.5999 34.8053C18.5999 34.4892 18.4858 34.1873 18.2825 33.9521V32.8125C18.2825 30.7103 16.5722 29 14.47 29C12.3678 29 10.6575 30.7103 10.6575 32.8125V33.9819C10.4521 34.2148 10.3404 34.5014 10.3404 34.8053C10.3404 35.1863 10.5056 35.547 10.7939 35.7949C11.0145 35.9846 11.2846 36.0933 11.5757 36.1138C11.6782 36.8965 12.0951 37.5951 12.729 38.0555V38.8725L9.05517 40.2968C9.05324 40.2975 9.05131 40.2983 9.04938 40.2991C8.98306 40.3263 7.42578 40.9875 7.42578 42.8063V49.2148C7.42578 49.6477 7.77798 49.9999 8.2109 49.9999H11.1418C11.3116 49.9999 11.4494 49.8621 11.4494 49.6923C11.4494 49.5224 11.3116 49.3846 11.1418 49.3846H10.4799V43.3268C10.4799 43.1569 10.3422 43.0192 10.1723 43.0192C10.0024 43.0192 9.86465 43.1569 9.86465 43.3268V49.3847H8.21094C8.1173 49.3847 8.0411 49.3085 8.0411 49.2149V42.8063C8.0411 41.4213 9.20976 40.8997 9.28153 40.869L11.4896 40.013L12.4597 41.9572C12.5525 42.1431 12.741 42.2554 12.9418 42.2554C13.1388 42.2554 13.2433 42.1631 13.3823 42.0644L13.6301 42.4374L12.7104 47.8707C12.7099 47.8737 12.7095 47.8768 12.709 47.8799C12.6868 48.0409 12.7365 48.2063 12.8421 48.3225L13.8077 49.3848H12.5774C12.4075 49.3848 12.2698 49.5225 12.2698 49.6924C12.2698 49.8623 12.4075 50 12.5774 50H20.7955C21.2284 50 21.5806 49.6478 21.5806 49.2149V46.3227C21.5806 46.1528 21.4428 46.015 21.2729 46.015ZM16.9385 39.7899L16.0341 41.6024C16.0116 41.5865 15.5324 41.246 14.9465 40.8299C15.2007 40.5161 14.9033 40.8832 16.0635 39.4511L16.9385 39.7899ZM15.1201 41.708L14.8856 42.061H14.1185L13.884 41.708L14.5021 41.269L15.1201 41.708ZM13.3442 38.9718V38.3961C13.7179 38.5467 14.1173 38.6166 14.5074 38.6166C14.9107 38.6166 15.3062 38.5306 15.6579 38.3768V38.9743L14.5021 40.401L13.3442 38.9718ZM17.9846 34.8053C17.9846 35.0068 17.8973 35.1975 17.7451 35.3284C17.6445 35.4149 17.523 35.4703 17.3899 35.4919V34.1188C17.7434 34.1763 17.9846 34.4695 17.9846 34.8053ZM11.5503 35.4919C11.1927 35.4339 10.9556 35.1382 10.9556 34.8053C10.9556 34.4764 11.2282 34.2087 11.5503 34.1343V35.4919ZM11.5668 33.5075C11.4689 33.5187 11.3566 33.5452 11.2728 33.5737V32.8125C11.2728 31.0496 12.7071 29.6153 14.4701 29.6153C16.233 29.6153 17.6673 31.0496 17.6673 32.8125V33.5526C17.5778 33.5254 17.4851 33.5074 17.3899 33.499C17.3899 33.2021 17.3925 33.2594 16.4215 32.2154C16.2429 32.0235 15.9475 31.9834 15.7227 32.1302C14.6509 32.8303 13.3436 33.182 12.1373 33.0954C11.8727 33.0756 11.6317 33.2499 11.5668 33.5075ZM12.1656 35.7341V33.8149V33.7138C13.4935 33.7916 14.8857 33.3971 16.0104 32.6768C16.4557 33.155 16.6969 33.4058 16.7746 33.5012C16.7746 33.7425 16.7746 35.4578 16.7746 35.7341C16.7746 36.9829 15.7564 38.0012 14.5074 38.0012C13.1049 38.0013 12.1656 36.9133 12.1656 35.7341ZM12.9701 41.6024L12.0658 39.7899L12.9391 39.4517L14.0564 40.8308C13.4882 41.2343 13.0217 41.5658 12.9701 41.6024ZM13.323 47.937L14.2135 42.6762H14.7906L15.681 47.937L14.502 49.234L13.323 47.937Z" fill="black"/>
<path d="M15 55C23.2843 55 30 48.2843 30 40C30 31.7157 23.2843 25 15 25C6.71573 25 0 31.7157 0 40C0.00964345 48.2803 6.71973 54.9904 15 55ZM15 26.6667C22.3638 26.6667 28.3333 32.6362 28.3333 40C28.3333 47.3638 22.3638 53.3333 15 53.3333C7.6362 53.3333 1.66667 47.3638 1.66667 40C1.67539 32.6398 7.63982 26.6754 15 26.6667Z" fill="#040200"/>
<path d="M20.4379 54.0289H49.6039C50.3186 54.0341 51.0274 53.9251 51.6893 53.7085C52.3511 53.4919 52.9527 53.1719 53.4592 52.7671C53.9657 52.3623 54.367 51.8807 54.6397 51.3504C54.9125 50.82 55.0513 50.2514 55.0481 49.6777V4.33196C55.0481 3.18305 54.4796 2.0812 53.4676 1.2688C52.4556 0.456402 51.0831 0 49.652 0H12.3961C10.967 -2.8453e-06 9.59634 0.455074 8.58472 1.26539C7.5731 2.07571 7.00318 3.17508 7 4.32232V27.2481C7.19419 27.1632 7.39051 27.0824 7.58888 27.0056V4.34161C7.58888 3.31809 8.09536 2.33648 8.99688 1.61274C9.89841 0.888996 11.1211 0.482401 12.3961 0.482401H49.652C50.9269 0.482401 52.1497 0.888996 53.0512 1.61274C53.9527 2.33648 54.4592 3.31809 54.4592 4.34161V49.6873C54.4592 50.7109 53.9527 51.6925 53.0512 52.4162C52.1497 53.1399 50.9269 53.5465 49.652 53.5465H21.2239C20.9673 53.7151 20.7051 53.876 20.4379 54.0289Z" fill="#040200"/>
</svg>
