<svg width="49" height="55" viewBox="0 0 49 55" fill="none" xmlns="http://www.w3.org/2000/svg">
<path d="M42.604 54.0289H5.34815C3.91909 54.0187 2.55344 53.5539 1.55082 52.7363C0.548205 51.9188 -0.00948299 50.8153 0.000122044 49.668V4.32232C0.00330479 3.17508 0.573225 2.07571 1.58484 1.26539C2.59646 0.455074 3.96716 -2.84531e-06 5.39622 0H42.6521C44.0832 0 45.4558 0.456402 46.4677 1.2688C47.4797 2.0812 48.0482 3.18305 48.0482 4.33196V49.6777C48.0514 50.2514 47.9126 50.82 47.6399 51.3504C47.3671 51.8807 46.9658 52.3623 46.4593 52.7671C45.9528 53.1719 45.3512 53.4919 44.6894 53.7085C44.0276 53.9251 43.3187 54.0341 42.604 54.0289ZM5.39622 0.482401C4.12127 0.482401 2.89853 0.888996 1.99701 1.61274C1.09548 2.33648 0.589005 3.31809 0.589005 4.34161V49.6873C0.589005 50.7109 1.09548 51.6925 1.99701 52.4162C2.89853 53.1399 4.12127 53.5465 5.39622 53.5465H42.6521C43.9271 53.5465 45.1498 53.1399 46.0513 52.4162C46.9529 51.6925 47.4593 50.7109 47.4593 49.6873V4.34161C47.4593 3.31809 46.9529 2.33648 46.0513 1.61274C45.1498 0.888996 43.9271 0.482401 42.6521 0.482401H5.39622Z" fill="#023E7D"/>
<path d="M25.7268 50H22.2732C22.2008 50 22.1313 49.963 22.08 49.8971C22.0288 49.8312 22 49.7418 22 49.6486V37.3514C22 37.2582 22.0288 37.1688 22.08 37.1029C22.1313 37.037 22.2008 37 22.2732 37H25.7268C25.7992 37 25.8687 37.037 25.92 37.1029C25.9712 37.1688 26 37.2582 26 37.3514V49.6768C25.9945 49.765 25.9633 49.8473 25.9126 49.9072C25.862 49.9671 25.7956 50.0003 25.7268 50ZM22.5464 49.2973H25.4536V37.6324H22.5464V49.2973Z" fill="#023E7D"/>
<path d="M32.7132 49.9996H29.2738C29.2012 49.9996 29.1316 49.9611 29.0802 49.8927C29.0289 49.8243 29 49.7314 29 49.6346V32.365C29 32.2682 29.0289 32.1753 29.0802 32.1069C29.1316 32.0385 29.2012 32 29.2738 32H32.7241C32.7968 32 32.8664 32.0385 32.9178 32.1069C32.9691 32.1753 32.998 32.2682 32.998 32.365V49.5908C33.0028 49.6436 32.9989 49.6971 32.9867 49.7476C32.9744 49.7981 32.9539 49.8445 32.9268 49.8834C32.8997 49.9223 32.8665 49.9529 32.8296 49.9729C32.7927 49.993 32.753 50.0021 32.7132 49.9996ZM29.5367 49.2697H32.4394V32.7299H29.5367V49.2697Z" fill="#023E7D"/>
<path d="M39.7249 50H36.2731C36.2007 50 36.1312 49.9617 36.08 49.8934C36.0288 49.8252 36 49.7326 36 49.6361V30.3639C36 30.2674 36.0288 30.1748 36.08 30.1066C36.1312 30.0383 36.2007 30 36.2731 30H39.7249C39.7965 30.0036 39.8644 30.0431 39.915 30.1106C39.9657 30.1781 39.9953 30.2685 39.998 30.3639V49.5924C40.0027 49.6437 39.9991 49.6958 39.9875 49.7451C39.9758 49.7944 39.9565 49.8399 39.9306 49.8785C39.9048 49.917 39.8731 49.9478 39.8376 49.9688C39.8021 49.9897 39.7637 50.0004 39.7249 50ZM36.5462 49.2722H39.4518V30.7278H36.5462V49.2722Z" fill="#023E7D"/>
<path d="M23.9055 7.13476C21.7403 5.3096 18.9951 4.31633 16.1633 4.33338C13.3315 4.35044 10.5985 5.3767 8.45539 7.22781C6.31227 9.07893 4.89944 11.6336 4.4707 14.4328C4.04197 17.2321 4.62543 20.0924 6.11627 22.5001C7.60711 24.9078 9.90763 26.705 12.6045 27.5689C15.3015 28.4327 18.218 28.3066 20.8303 27.2132C23.4426 26.1197 25.5794 24.1307 26.8568 21.6033C28.1342 19.0759 28.4686 16.1758 27.7998 13.424L26.091 13.8393C26.6609 16.1845 26.376 18.656 25.2873 20.81C24.1986 22.9639 22.3776 24.6591 20.1513 25.591C17.925 26.5228 15.4394 26.6303 13.141 25.8941C10.8426 25.1579 8.88198 23.6263 7.61143 21.5743C6.34088 19.5224 5.84363 17.0847 6.20901 14.699C6.5744 12.3134 7.77847 10.1363 9.60492 8.55868C11.4314 6.98109 13.7605 6.10647 16.1739 6.09193C18.5873 6.07739 20.9268 6.9239 22.7721 8.47937L23.9055 7.13476Z" fill="#023E7D"/>
</svg>
