<svg width="48" height="54" viewBox="0 0 48 54" fill="none" xmlns="http://www.w3.org/2000/svg">
<path d="M10.8164 31.3C12.0894 34.9288 14.7518 37.9033 18.218 39.5691C21.6841 41.2349 25.67 41.4556 29.2988 40.1826C32.9276 38.9096 35.9021 36.2472 37.5679 32.781C39.2338 29.3149 39.4544 25.329 38.1814 21.7002L36.1597 22.4094C37.2446 25.5021 37.0565 28.899 35.6368 31.853C34.2172 34.8069 31.6822 37.0759 28.5896 38.1608C25.4969 39.2458 22.1 39.0577 19.146 37.638C16.1921 36.2183 13.9231 33.6834 12.8382 30.5907L10.8164 31.3Z" fill="#023E7D"/>
<path d="M29.0989 12.7486C26.6866 11.9419 24.1046 11.7839 21.612 12.2905C19.1193 12.7971 16.8038 13.9506 14.8979 15.635C12.9919 17.3194 11.5626 19.4755 10.7534 21.887C9.94415 24.2984 9.78351 26.8803 10.2876 29.3734L12.3876 28.9489C11.958 26.8241 12.0949 24.6237 12.7846 22.5686C13.4742 20.5135 14.6924 18.6759 16.3167 17.2404C17.941 15.8049 19.9144 14.8219 22.0387 14.3901C24.163 13.9584 26.3635 14.093 28.4194 14.7806L29.0989 12.7486Z" fill="#296099"/>
<path d="M37.5122 20.0997C36.0715 17.1707 33.6847 14.8135 30.738 13.4094L29.8164 15.3436C32.3277 16.5402 34.3618 18.5492 35.5896 21.0454L37.5122 20.0997Z" fill="#296099"/>
<path d="M16.1416 30.9977C16.1168 31.006 16.0908 31.006 16.0661 30.9977C16.0512 30.9878 16.0378 30.975 16.0277 30.9597C16.0177 30.9445 16.0101 30.9273 16.0066 30.9091C16.003 30.8909 16.003 30.8711 16.0066 30.8529C16.0101 30.8347 16.0177 30.8176 16.0277 30.8023L18.8562 26.2595C18.8665 26.2428 18.88 26.2282 18.8959 26.2174C18.9118 26.2065 18.9301 26.1994 18.9488 26.1963C18.9682 26.1926 18.9882 26.1945 19.0071 26.2005C19.0259 26.2065 19.0431 26.2171 19.0574 26.2314L22.2114 29.1381L25.2463 24.6347C25.2567 24.6185 25.2714 24.6052 25.2873 24.5953C25.3033 24.5854 25.3205 24.5788 25.339 24.5771C25.3722 24.5639 25.4089 24.5639 25.4422 24.5771L29.7861 27.9532L32.7443 21.0871C32.7513 21.0697 32.7617 21.0537 32.7747 21.0407C32.7877 21.0277 32.8029 21.019 32.8197 21.0126C32.8365 21.0061 32.8548 21.003 32.8726 21.0041C32.8905 21.0053 32.9083 21.0096 32.9243 21.0182C32.9407 21.0256 32.9556 21.0369 32.9679 21.0505C32.9803 21.0642 32.9896 21.0806 32.9957 21.0983C33.0018 21.116 33.0048 21.1343 33.0037 21.1531C33.0026 21.1719 32.9972 21.1912 32.9891 21.2079L29.9648 28.2793C29.9568 28.2986 29.9454 28.3161 29.9304 28.3299C29.9154 28.3438 29.8979 28.3536 29.8788 28.3594C29.8611 28.369 29.8404 28.3735 29.8205 28.3735C29.8007 28.3735 29.7813 28.369 29.7636 28.3594L25.372 24.9439L22.3252 29.4347C22.3024 29.4653 22.2704 29.4862 22.2339 29.4923C22.2145 29.4952 22.1944 29.494 22.1757 29.4881C22.1569 29.4822 22.14 29.4722 22.1254 29.4586L18.9806 26.5575L16.2779 30.9288C16.2637 30.9526 16.2423 30.9715 16.2183 30.9836C16.1943 30.9958 16.168 31.0009 16.1416 30.9977Z" stroke="#296099"/>
<rect x="0.25" y="0.25" width="47.5" height="53.5" rx="4.75" stroke="#023E7D" stroke-width="0.5"/>
</svg>
