<svg width="58" height="56" viewBox="0 0 58 56" fill="none" xmlns="http://www.w3.org/2000/svg">
<path d="M15 56C23.2843 56 30 49.2843 30 41C30 32.7157 23.2843 26 15 26C6.71573 26 0 32.7157 0 41C0.00964345 49.2803 6.71973 55.9904 15 56ZM15 27.6667C22.3638 27.6667 28.3333 33.6362 28.3333 41C28.3333 48.3638 22.3638 54.3333 15 54.3333C7.6362 54.3333 1.66667 48.3638 1.66667 41C1.67539 33.6398 7.63982 27.6754 15 27.6667Z" fill="#023E7D"/>
<path d="M22.4379 54.0289H51.6039C52.3186 54.0341 53.0274 53.9251 53.6893 53.7085C54.3511 53.4919 54.9527 53.1719 55.4592 52.7671C55.9657 52.3623 56.367 51.8807 56.6397 51.3504C56.9125 50.82 57.0513 50.2514 57.0481 49.6777V4.33196C57.0481 3.18305 56.4796 2.0812 55.4676 1.2688C54.4556 0.456402 53.0831 0 51.652 0H14.3961C12.967 -2.8453e-06 11.5963 0.455074 10.5847 1.26539C9.5731 2.07571 9.00318 3.17508 9 4.32232V27.2481C9.19419 27.1632 9.39051 27.0824 9.58888 27.0056V4.34161C9.58888 3.31809 10.0954 2.33648 10.9969 1.61274C11.8984 0.888996 13.1211 0.482401 14.3961 0.482401H51.652C52.9269 0.482401 54.1497 0.888996 55.0512 1.61274C55.9527 2.33648 56.4592 3.31809 56.4592 4.34161V49.6873C56.4592 50.7109 55.9527 51.6925 55.0512 52.4162C54.1497 53.1399 52.9269 53.5465 51.652 53.5465H23.2239C22.9673 53.7151 22.7051 53.876 22.4379 54.0289Z" fill="#023E7D"/>
<path d="M10.34 37.54L10 38.54H15.16C15.04 39.16 14.74 39.66 14.22 40.04C13.54 40.54 12.54 40.8 11.22 40.8H10.14V41.94C10.66 41.94 11.12 42.08 11.52 42.34C11.84 42.56 12.2 42.92 12.58 43.44L16.18 48.28H18.4L14.24 42.9C13.76 42.26 13.42 41.88 13.18 41.72C14.26 41.54 15.12 41.14 15.8 40.52C16.36 40 16.7 39.34 16.8 38.54H19.08L19.42 37.54H16.82C16.72 36.48 16.28 35.64 15.52 35H19.12L19.46 34H10.36L10.02 35H11.86C12.9 35 13.72 35.26 14.32 35.78C14.8 36.22 15.08 36.8 15.18 37.54H10.34Z" fill="#023E7D"/>
<path d="M18.5295 11C17.0991 11 15.9866 11.4852 15.1655 12.4555C14.3841 13.372 14 14.558 14 16.0135C14 17.4555 14.3841 18.6415 15.1655 19.558C15.9866 20.5148 17.0991 21 18.5162 21C19.9334 21 21.0591 20.5148 21.8802 19.558C22.6484 18.6415 23.0457 17.469 23.0457 16.0135C23.0457 14.5445 22.6484 13.3585 21.8802 12.442C21.0591 11.4717 19.9334 11 18.5295 11ZM18.5295 11.9838C19.6155 11.9838 20.4631 12.3477 21.0723 13.0889C21.6551 13.8167 21.9597 14.7871 21.9597 16.0135C21.9597 17.2264 21.6551 18.1833 21.0723 18.9111C20.4631 19.6388 19.6023 20.0162 18.5162 20.0162C17.4302 20.0162 16.5694 19.6388 15.9601 18.8841C15.3774 18.1563 15.086 17.1995 15.086 16.0135C15.086 14.814 15.3774 13.8571 15.9601 13.1294C16.5826 12.3612 17.4435 11.9838 18.5295 11.9838Z" fill="#023E7D"/>
<path d="M25.8747 11.1887V20.8113H26.9607V16.876H29.7287C31.9007 16.876 33 15.9191 33 14.0189C33 12.1321 31.914 11.1887 29.742 11.1887H25.8747ZM26.9607 12.1456H29.6757C30.4306 12.1456 30.9869 12.2938 31.3577 12.6173C31.7286 12.9003 31.914 13.372 31.914 14.0189C31.914 14.6658 31.7286 15.1375 31.371 15.4474C31.0001 15.7574 30.4439 15.9191 29.6757 15.9191H26.9607V12.1456Z" fill="#023E7D"/>
<path d="M42.8444 22.3749L34.3745 30.8446C34.1327 31.0864 34 31.4086 34 31.7522C34 32.0962 34.1329 32.4183 34.3745 32.66L35.1437 33.429C35.3851 33.6706 35.7075 33.8037 36.0513 33.8037C36.3949 33.8037 36.7282 33.6706 36.9696 33.429L41.9216 28.4879V44.1861C41.9216 44.8939 42.4757 45.4531 43.1836 45.4531H44.271C44.979 45.4531 45.589 44.8939 45.589 44.1861V28.4318L50.5686 33.4288C50.8104 33.6704 51.1241 33.8035 51.4679 33.8035C51.8113 33.8035 52.1295 33.6704 52.3711 33.4288L53.1378 32.6598C53.3796 32.4181 53.5113 32.096 53.5113 31.752C53.5113 31.4084 53.3778 31.0862 53.1361 30.8444L44.6663 22.3747C44.4238 22.1323 44.1 21.9991 43.7558 22C43.4105 21.9992 43.0866 22.1323 42.8444 22.3749Z" fill="#023E7D"/>
</svg>
