<svg width="49" height="55" viewBox="0 0 49 55" fill="none" xmlns="http://www.w3.org/2000/svg">
<path d="M43.8726 2.23836L43.8759 2.23583C44.5991 1.67185 45.6629 1.52568 46.5688 1.8869L46.5688 1.88694L46.5743 1.88906C47.4815 2.23841 48.0032 2.9935 47.992 3.76352L47.992 3.76352V3.77079L47.9919 51.2287L47.992 51.2327C47.9959 51.7188 47.7924 52.2028 47.3968 52.5879L47.3967 52.588C46.4955 53.4656 44.9076 53.5526 43.8804 52.7618L43.8794 52.761L39.7472 49.5962L39.4415 49.362L39.1371 49.5978L33.5188 53.9477L33.5186 53.9479C32.5702 54.6832 31.1138 54.6832 30.1654 53.9479L30.1651 53.9477L24.5521 49.6017L24.246 49.3647L23.9399 49.6018L18.3277 53.9483L18.3274 53.9485C17.3794 54.6838 15.9232 54.6838 14.9752 53.9485L14.9749 53.9483L9.35815 49.5982L9.05354 49.3623L8.74778 49.5967L4.61942 52.7617L4.61869 52.7622C4.16625 53.1104 3.56969 53.3087 2.94323 53.3055C1.51576 53.2982 0.492727 52.3053 0.500071 51.2326V51.2292V3.77079H0.500087L0.500055 3.76679C0.496171 3.28117 0.69956 2.79746 1.09492 2.41234C1.99599 1.53463 3.58395 1.44732 4.61125 2.23791L4.61217 2.23862L8.7444 5.40346L9.05008 5.63758L9.35453 5.40185L14.9727 1.05178L14.973 1.05156C15.9214 0.316148 17.3778 0.316148 18.3262 1.05156L18.3265 1.05179L23.9399 5.39775L24.2461 5.63475L24.5522 5.39771L30.1643 1.05176L30.1646 1.05152C31.1126 0.316161 32.5688 0.316161 33.5169 1.05152L33.5172 1.05174L39.1339 5.40182L39.4385 5.63773L39.7442 5.40332L43.8726 2.23836Z" stroke="#023E7D"/>
<path d="M33.2004 26.2109H8.78398C8.07268 26.2109 7.49609 26.7875 7.49609 27.4988C7.49609 28.2101 8.07268 28.7867 8.78398 28.7867H33.2004C33.9117 28.7867 34.4883 28.2101 34.4883 27.4988C34.4883 26.7875 33.9116 26.2109 33.2004 26.2109Z" fill="#023E7D"/>
<path d="M21.6095 18.4844H8.78397C8.07268 18.4844 7.49609 19.061 7.49609 19.7723C7.49609 20.4836 8.07268 21.0601 8.78397 21.0601H21.6095C22.3208 21.0601 22.8973 20.4836 22.8973 19.7723C22.8973 19.061 22.3206 18.4844 21.6095 18.4844Z" fill="#023E7D"/>
<path d="M33.2004 33.9414H8.78398C8.07268 33.9414 7.49609 34.518 7.49609 35.2293C7.49609 35.9406 8.07268 36.5172 8.78398 36.5172H33.2004C33.9117 36.5172 34.4883 35.9406 34.4883 35.2293C34.4883 34.518 33.9116 33.9414 33.2004 33.9414Z" fill="#023E7D"/>
</svg>
