<svg width="58" height="55" viewBox="0 0 58 55" fill="none" xmlns="http://www.w3.org/2000/svg">
<path d="M16.75 9.99609H15.0833C14.6231 9.99609 14.25 10.3692 14.25 10.8294C14.25 11.2897 14.6231 11.6628 15.0833 11.6628H16.75C17.2102 11.6628 17.5833 11.2897 17.5833 10.8294C17.5833 10.3692 17.2102 9.99609 16.75 9.99609Z" fill="#023E7D"/>
<path d="M45.0833 9.99609H20.0833C19.6231 9.99609 19.25 10.3692 19.25 10.8294C19.25 11.2897 19.6231 11.6628 20.0833 11.6628H45.0833C45.5436 11.6628 45.9167 11.2897 45.9167 10.8294C45.9167 10.3692 45.5436 9.99609 45.0833 9.99609Z" fill="#023E7D"/>
<path d="M16.75 15.0002H15.0833C14.6231 15.0002 14.25 15.3733 14.25 15.8336C14.25 16.2938 14.6231 16.6669 15.0833 16.6669H16.75C17.2102 16.6669 17.5833 16.2938 17.5833 15.8336C17.5833 15.3733 17.2102 15.0002 16.75 15.0002Z" fill="#023E7D"/>
<path d="M40.0833 15.8336C40.0833 15.3733 39.7102 15.0002 39.25 15.0002H20.0833C19.6231 15.0002 19.25 15.3733 19.25 15.8336C19.25 16.2938 19.6231 16.6669 20.0833 16.6669H39.25C39.7102 16.6669 40.0833 16.2938 40.0833 15.8336Z" fill="#023E7D"/>
<path d="M16.75 19.9976H15.0833C14.6231 19.9976 14.25 20.3707 14.25 20.8309C14.25 21.2911 14.6231 21.6642 15.0833 21.6642H16.75C17.2102 21.6642 17.5833 21.2911 17.5833 20.8309C17.5833 20.3707 17.2102 19.9976 16.75 19.9976Z" fill="#023E7D"/>
<path d="M20.0833 19.9976C19.6231 19.9976 19.25 20.3707 19.25 20.8309C19.25 21.2911 19.6231 21.6642 20.0833 21.6642H25.0833C25.5436 21.6642 25.9167 21.2911 25.9167 20.8309C25.9167 20.3707 25.5436 19.9976 25.0833 19.9976H20.0833Z" fill="#023E7D"/>
<path d="M52 29.25C52 28.5596 51.5523 28 51 28C50.4477 28 50 28.5596 50 29.25V46.75C50 47.4404 50.4477 48 51 48C51.5523 48 52 47.4404 52 46.75V29.25Z" fill="#023E7D"/>
<path d="M15 55C23.2843 55 30 48.2843 30 40C30 31.7157 23.2843 25 15 25C6.71573 25 0 31.7157 0 40C0.00964345 48.2803 6.71973 54.9904 15 55ZM15 26.6667C22.3638 26.6667 28.3333 32.6362 28.3333 40C28.3333 47.3638 22.3638 53.3333 15 53.3333C7.6362 53.3333 1.66667 47.3638 1.66667 40C1.67539 32.6398 7.63982 26.6754 15 26.6667Z" fill="#023E7D"/>
<path d="M20.4379 54.0289H49.6039C50.3186 54.0341 51.0274 53.9251 51.6893 53.7085C52.3511 53.4919 52.9527 53.1719 53.4592 52.7671C53.9657 52.3623 54.367 51.8807 54.6397 51.3504C54.9125 50.82 55.0513 50.2514 55.0481 49.6777V4.33196C55.0481 3.18305 54.4796 2.0812 53.4676 1.2688C52.4556 0.456402 51.0831 0 49.652 0H12.3961C10.967 -2.8453e-06 9.59634 0.455074 8.58472 1.26539C7.5731 2.07571 7.00318 3.17508 7 4.32232V27.2481C7.19419 27.1632 7.39051 27.0824 7.58888 27.0056V4.34161C7.58888 3.31809 8.09536 2.33648 8.99688 1.61274C9.89841 0.888996 11.1211 0.482401 12.3961 0.482401H49.652C50.9269 0.482401 52.1497 0.888996 53.0512 1.61274C53.9527 2.33648 54.4592 3.31809 54.4592 4.34161V49.6873C54.4592 50.7109 53.9527 51.6925 53.0512 52.4162C52.1497 53.1399 50.9269 53.5465 49.652 53.5465H21.2239C20.9673 53.7151 20.7051 53.876 20.4379 54.0289Z" fill="#023E7D"/>
<path d="M19.2442 46.5918C19.5711 46.9076 20.0909 46.9031 20.4123 46.5816C20.7338 46.2602 20.7383 45.7404 20.4225 45.4134L15.6667 40.6576V30.1693C15.6667 29.709 15.2936 29.3359 14.8333 29.3359C14.3731 29.3359 14 29.709 14 30.1693V41.0026C14 41.2236 14.0879 41.4355 14.2442 41.5918L19.2442 46.5918Z" fill="#023E7D"/>
</svg>
