<svg width="34" height="34" viewBox="0 0 34 34" fill="none" xmlns="http://www.w3.org/2000/svg">
<path d="M17 0C7.62582 0 0 7.62582 0 17C0 26.3742 7.62582 34 17 34C26.3742 34 34 26.3742 34 17C34 7.62582 26.3742 0 17 0Z" fill="#023E7D"/>
<path d="M24.4361 18.4171H18.4152V24.4381C18.4152 25.2202 17.7807 25.8546 16.9986 25.8546C16.2165 25.8546 15.582 25.2202 15.582 24.4381V18.4171H9.56111C8.77902 18.4171 8.14453 17.7827 8.14453 17.0006C8.14453 16.2185 8.77902 15.584 9.56111 15.584H15.582V9.56306C15.582 8.78098 16.2165 8.14648 16.9986 8.14648C17.7807 8.14648 18.4152 8.78098 18.4152 9.56306V15.584H24.4361C25.2182 15.584 25.8527 16.2185 25.8527 17.0006C25.8527 17.7827 25.2182 18.4171 24.4361 18.4171Z" fill="#FAFAFA"/>
</svg>
