<svg width="74" height="37" viewBox="0 0 74 37" fill="none" xmlns="http://www.w3.org/2000/svg">
<path d="M5.80805 32.047L1.88961 33.4732L1.89801 36.2345L0.626125 36.6974L0.793522 26.0446L1.8727 25.6518L8.85486 33.7024L7.58939 34.163L5.80805 32.047ZM1.89277 32.3226L5.07249 31.1653L1.88722 27.3706L1.89277 32.3226ZM12.6457 28.1761L13.9784 31.8376L12.745 32.2865L9.34087 22.9336L12.7904 21.6781C13.8139 21.3056 14.7098 21.2753 15.4781 21.5874C16.2507 21.8978 16.7936 22.4835 17.1069 23.3442C17.4373 24.2521 17.4074 25.0559 17.0171 25.7557C16.6295 26.4497 15.9068 26.9892 14.849 27.3741L12.6457 28.1761ZM12.2786 27.1676L14.4948 26.361C15.1543 26.1209 15.6035 25.7828 15.8425 25.3467C16.0798 24.9062 16.0918 24.3927 15.8782 23.806C15.6756 23.2493 15.3379 22.8678 14.8652 22.6616C14.3924 22.4554 13.8475 22.4573 13.2305 22.6673L10.9436 23.4997L12.2786 27.1676ZM23.5762 24.1977L24.9089 27.8592L23.6756 28.3081L20.2714 18.9552L23.7209 17.6997C24.7444 17.3272 25.6403 17.2969 26.4086 17.609C27.1812 17.9194 27.7241 18.5051 28.0374 19.3658C28.3679 20.2737 28.3379 21.0776 27.9476 21.7773C27.56 22.4713 26.8373 23.0108 25.7796 23.3958L23.5762 24.1977ZM23.2092 23.1892L25.4253 22.3826C26.0848 22.1425 26.5341 21.8044 26.773 21.3683C27.0104 20.9279 27.0223 20.4143 26.8087 19.8276C26.6061 19.2709 26.2684 18.8894 25.7957 18.6832C25.323 18.477 24.7781 18.4789 24.161 18.6889L21.8742 19.5213L23.2092 23.1892ZM36.6593 19.2977L34.4624 20.0973L35.8395 23.8808L34.5997 24.3321L31.1955 14.9792L34.2917 13.8522C35.3452 13.4688 36.2419 13.414 36.9817 13.6879C37.7259 13.9602 38.2647 14.5546 38.5983 15.4711C38.8103 16.0535 38.8365 16.6186 38.677 17.1665C38.5219 17.7128 38.2027 18.1951 37.7197 18.6134L41.3615 21.7837L41.3895 21.8608L40.0662 22.3424L36.6593 19.2977ZM34.0953 19.0887L35.9903 18.399C36.6027 18.1761 37.031 17.8408 37.2754 17.3929C37.5241 16.9436 37.5518 16.4533 37.3585 15.9223C37.1481 15.3442 36.8133 14.9641 36.3542 14.782C35.8994 14.5984 35.3457 14.6229 34.6933 14.8555L32.8047 15.5429L34.0953 19.0887ZM50.9463 13.4283C51.2798 14.3448 51.4171 15.2017 51.3582 15.9991C51.2977 16.7923 51.0502 17.4716 50.6159 18.0371C50.1815 18.6025 49.5875 19.0224 48.8338 19.2968C48.0972 19.5648 47.3787 19.6227 46.6782 19.4703C45.9761 19.3136 45.3451 18.9588 44.785 18.4061C44.2277 17.8476 43.7842 17.1288 43.4545 16.2497L43.209 15.5752C42.8817 14.6759 42.7489 13.8246 42.8105 13.0213C42.8722 12.2181 43.1216 11.5308 43.5587 10.9595C43.9985 10.3823 44.5867 9.9597 45.3232 9.69161C46.0727 9.41884 46.7984 9.3608 47.5005 9.51751C48.2053 9.66837 48.8373 10.0324 49.3966 10.6097C49.9543 11.1826 50.3992 11.9252 50.7312 12.8374L50.9463 13.4283ZM49.4996 13.2711C49.0959 12.1619 48.5638 11.3929 47.9033 10.964C47.2413 10.5309 46.5098 10.46 45.709 10.7515C44.9296 11.0352 44.4234 11.5565 44.1904 12.3154C43.9601 13.0685 44.0303 13.9741 44.4009 15.0323L44.651 15.7196C45.0423 16.7945 45.5749 17.5585 46.2491 18.0115C46.9259 18.4586 47.6604 18.5381 48.4527 18.2497C49.2492 17.9598 49.7607 17.4463 49.9871 16.7091C50.2119 15.9677 50.1336 15.053 49.7521 13.9648L49.4996 13.2711ZM59.3783 13.4583L59.2426 4.77087L60.5916 4.27989L60.5269 14.8953L59.4349 15.2928L52.5684 7.20009L53.9109 6.71144L59.3783 13.4583ZM71.5991 5.96952L67.5458 7.44482L68.7522 10.7594L73.4607 9.04566L73.8278 10.0542L67.8859 12.2169L64.4817 2.86398L70.3594 0.724681L70.7288 1.73962L66.0845 3.43002L67.1787 6.4363L71.232 4.961L71.5991 5.96952Z" fill="white"/>
</svg>
