<svg width="31" height="33" viewBox="0 0 31 33" fill="none" xmlns="http://www.w3.org/2000/svg">
<path d="M10.64 12.572H14.496V16.428H10.64V12.572ZM16.424 12.572H20.28V16.428H16.424V12.572ZM22.208 12.572H26.064V16.428H22.208V12.572ZM4.856 24.136H8.712V27.992H4.856V24.136ZM10.64 24.136H14.496V27.992H10.64V24.136ZM16.424 24.136H20.28V27.992H16.424V24.136ZM10.64 18.352H14.496V22.208H10.64V18.352ZM16.424 18.352H20.28V22.208H16.424V18.352ZM22.208 18.352H26.064V22.208H22.208V18.352ZM4.856 18.352H8.712V22.208H4.856V18.352ZM26.064 1V2.928H22.208V1H8.708V2.928H4.856V1H1V31.849H29.92V1H26.064ZM27.992 29.921H2.929V8.712H27.992V29.921Z" fill="#410F8A" stroke="#023E7D"/>
</svg>
