<svg width="12" height="17" viewBox="0 0 12 17" fill="none" xmlns="http://www.w3.org/2000/svg">
<path d="M11.062 2.70361H8.61377C8.99561 3.26514 9.24268 3.92399 9.35498 4.68018H11.6235L11.062 6.72412H9.36621C9.2015 7.95947 8.70736 8.90658 7.88379 9.56543C7.06022 10.2168 5.896 10.6061 4.39111 10.7334L9.62451 16.854V17H6.40137L0.685059 10.3403L0.673828 8.62207H3.51514C4.35368 8.62207 5.01628 8.44987 5.50293 8.10547C5.99707 7.75358 6.3265 7.29313 6.49121 6.72412H0.449219L1.02197 4.68018H6.44629C6.07943 3.51969 5.0874 2.93945 3.47021 2.93945H0.449219L1.05566 0.648438H11.6348L11.062 2.70361Z" fill="#494949"/>
</svg>
