<svg width="31" height="32" viewBox="0 0 31 32" fill="none" xmlns="http://www.w3.org/2000/svg">
<path d="M8.94189 21.275L15.5951 21.253L30.1166 7.28915C30.6865 6.73586 31.0001 6.00107 31.0001 5.21945C31.0001 4.43782 30.6865 3.70303 30.1166 3.14974L27.7255 0.828283C26.5857 -0.27829 24.5972 -0.272435 23.4664 0.823892L8.94189 14.7907V21.275ZM25.5937 2.89798L27.9893 5.21505L25.5817 7.53066L23.1905 5.21066L25.5937 2.89798ZM11.9572 16.0115L21.0482 7.26865L23.4393 9.59012L14.3498 18.33L11.9572 18.3373V16.0115Z" fill="#023E7D"/>
<path d="M2.71587 31.0011H21.727C23.2248 31.0011 24.4429 29.6986 24.4429 28.0969V15.5101L21.727 18.4143V28.0969H7.00424C6.96893 28.0969 6.93227 28.1115 6.89696 28.1115C6.85215 28.1115 6.80734 28.0984 6.76117 28.0969H2.71587V7.76749H12.0137L14.7295 4.86328H2.71587C1.21807 4.86328 0 6.16582 0 7.76749V28.0969C0 29.6986 1.21807 31.0011 2.71587 31.0011Z" fill="#023E7D"/>
</svg>
