<svg width="30" height="22" viewBox="0 0 30 22" fill="none" xmlns="http://www.w3.org/2000/svg">
<path d="M29.0059 10.6812C27.9032 7.82905 25.989 5.36245 23.4997 3.58633C21.0105 1.81021 18.0554 0.802412 14.9996 0.6875C11.9438 0.802412 8.98871 1.81021 6.49948 3.58633C4.01024 5.36245 2.096 7.82905 0.993351 10.6812C0.918883 10.8872 0.918883 11.1128 0.993351 11.3188C2.096 14.171 4.01024 16.6375 6.49948 18.4137C8.98871 20.1898 11.9438 21.1976 14.9996 21.3125C18.0554 21.1976 21.0105 20.1898 23.4997 18.4137C25.989 16.6375 27.9032 14.171 29.0059 11.3188C29.0803 11.1128 29.0803 10.8872 29.0059 10.6812ZM14.9996 17.0938C13.7944 17.0938 12.6162 16.7364 11.6141 16.0668C10.612 15.3972 9.83093 14.4455 9.36971 13.332C8.90849 12.2185 8.78781 10.9932 9.02294 9.81117C9.25807 8.6291 9.83844 7.54329 10.6907 6.69107C11.5429 5.83884 12.6287 5.25847 13.8108 5.02334C14.9928 4.78821 16.2181 4.90889 17.3316 5.37011C18.4451 5.83133 19.3968 6.61238 20.0664 7.61449C20.736 8.61661 21.0934 9.79477 21.0934 11C21.0909 12.6154 20.4481 14.1639 19.3058 15.3062C18.1635 16.4485 16.615 17.0913 14.9996 17.0938Z" fill="#0466C8"/>
</svg>
