<svg width="29" height="28" viewBox="0 0 29 28" fill="none" xmlns="http://www.w3.org/2000/svg">
<path d="M21.3107 15.3835H9.27331C8.97087 15.3835 8.72613 15.6284 8.72613 15.9309C8.72613 16.2334 8.97087 16.4783 9.27331 16.4783H21.3107C21.6132 16.4783 21.8579 16.2334 21.8579 15.9309C21.8579 15.6284 21.6131 15.3835 21.3107 15.3835Z" fill="white"/>
<path d="M21.3107 12.0994H9.27331C8.97087 12.0994 8.72613 12.3442 8.72613 12.6468C8.72613 12.9493 8.97087 13.1941 9.27331 13.1941H21.3107C21.6132 13.1941 21.8579 12.9493 21.8579 12.6468C21.8579 12.3442 21.6131 12.0994 21.3107 12.0994Z" fill="white"/>
<path d="M21.3107 18.6676H9.27331C8.97087 18.6676 8.72613 18.9125 8.72613 19.215C8.72613 19.5176 8.97087 19.7624 9.27331 19.7624H21.3107C21.6132 19.7624 21.8579 19.5176 21.8579 19.215C21.8579 18.9125 21.6131 18.6676 21.3107 18.6676Z" fill="white"/>
<path d="M15.8392 21.9518H9.27331C8.97087 21.9518 8.72613 22.1966 8.72613 22.4991C8.72613 22.8017 8.97087 23.0465 9.27331 23.0465H15.8392C16.1416 23.0465 16.3863 22.8017 16.3863 22.4991C16.3863 22.1966 16.1416 21.9518 15.8392 21.9518Z" fill="white"/>
<path d="M14.1977 9.3626C14.1977 9.66515 14.4424 9.90998 14.7449 9.90998H21.3107C21.6132 9.90998 21.8579 9.66515 21.8579 9.3626C21.8579 9.06005 21.6132 8.81523 21.3107 8.81523H14.7449C14.4424 8.81529 14.1977 9.06011 14.1977 9.3626Z" fill="white"/>
<path d="M9.76543 4.64133H8.80785C8.98097 4.86052 9.09052 5.12842 9.13651 5.44502H9.95208L9.76543 6.08635H9.14868C9.09999 6.56803 8.90928 6.93063 8.57656 7.17418C8.24384 7.41772 7.78128 7.53949 7.18887 7.53949L9.18926 9.86127V9.90998H8.26819L6.11767 7.40554L6.11361 6.89816H7.12395C7.46208 6.89545 7.73664 6.82239 7.94764 6.67897C8.15863 6.53285 8.29253 6.33531 8.34934 6.08635H6L6.18665 5.44502H8.34122C8.21138 4.93088 7.81374 4.66298 7.14829 4.64133H6.00811L6.19882 4H9.95208L9.76543 4.64133Z" fill="white"/>
<rect x="0.8" y="0.8" width="27.4" height="26.4" rx="3.2" stroke="white" stroke-width="1.6"/>
</svg>
