<svg width="30" height="25" viewBox="0 0 30 25" fill="none" xmlns="http://www.w3.org/2000/svg">
<g filter="url(#filter0_d)">
<path d="M24.9116 14.218L24.9094 14.2159L24.9071 14.2138C23.9227 12.2259 22.3981 11.2031 20.369 11.2031C18.3399 11.2031 16.8153 12.228 15.8287 14.2138V14.2159C15.7081 14.4609 15.7081 14.7464 15.8287 14.9915C16.8153 16.9773 18.3399 18 20.369 18C22.3981 18 23.9227 16.9751 24.9094 14.9893C25.0299 14.7443 25.0299 14.4609 24.9116 14.218ZM20.369 16.6364C18.9828 16.6364 17.9716 15.9972 17.2194 14.6016C17.9694 13.206 18.9828 12.5668 20.369 12.5668C21.7552 12.5668 22.7664 13.206 23.5187 14.6016C22.7687 15.9972 21.7552 16.6364 20.369 16.6364Z" fill="#023E7D"/>
<path d="M19.1289 14.6131C19.1289 14.9296 19.2606 15.233 19.495 15.4568C19.7295 15.6806 20.0474 15.8063 20.379 15.8063C20.7105 15.8063 21.0284 15.6806 21.2629 15.4568C21.4973 15.233 21.629 14.9296 21.629 14.6131C21.629 14.2967 21.4973 13.9932 21.2629 13.7694C21.0284 13.5456 20.7105 13.4199 20.379 13.4199C20.0474 13.4199 19.7295 13.5456 19.495 13.7694C19.2606 13.9932 19.1289 14.2967 19.1289 14.6131Z" fill="#023E7D"/>
<path d="M6.6072 4.53409H22.3221V9.92472H23.9293V3.68182C23.9293 3.30469 23.61 3 23.2149 3H5.71431C5.31921 3 5 3.30469 5 3.68182V14.7614C5 15.1385 5.31921 15.4432 5.71431 15.4432H13.5717V13.9091H6.6072V4.53409Z" fill="#023E7D"/>
<path d="M19.7526 6.79457L18.9312 6.01048C18.862 5.94442 18.7481 5.94442 18.6789 6.01048L14.5761 9.93093L12.6541 8.09428C12.5849 8.02823 12.4711 8.02823 12.4019 8.09428L9.18081 11.1689C9.11161 11.2349 9.11161 11.3436 9.18081 11.4096L10.0023 12.1937C10.0715 12.2598 10.1853 12.2598 10.2545 12.1937L12.5269 10.0247L14.4489 11.8613C14.5181 11.9274 14.6319 11.9274 14.7011 11.8613L19.7526 7.03533C19.824 6.96928 19.824 6.86062 19.7526 6.79457Z" fill="#023E7D"/>
</g>
<defs>
<filter id="filter0_d" x="0" y="0" width="30.0001" height="25" filterUnits="userSpaceOnUse" color-interpolation-filters="sRGB">
<feFlood flood-opacity="0" result="BackgroundImageFix"/>
<feColorMatrix in="SourceAlpha" type="matrix" values="0 0 0 0 0 0 0 0 0 0 0 0 0 0 0 0 0 0 127 0"/>
<feOffset dy="2"/>
<feGaussianBlur stdDeviation="2.5"/>
<feColorMatrix type="matrix" values="0 0 0 0 0.00784314 0 0 0 0 0.243137 0 0 0 0 0.490196 0 0 0 0.5 0"/>
<feBlend mode="normal" in2="BackgroundImageFix" result="effect1_dropShadow"/>
<feBlend mode="normal" in="SourceGraphic" in2="effect1_dropShadow" result="shape"/>
</filter>
</defs>
</svg>
