<svg width="30" height="30" viewBox="0 0 30 30" fill="none" xmlns="http://www.w3.org/2000/svg">
<g filter="url(#filter0_d)">
<path d="M22.5 15.5H7.5C6.8099 15.5 6.2207 15.2559 5.73242 14.7676C5.24414 14.2793 5 13.6901 5 13C5 12.3099 5.24414 11.7207 5.73242 11.2324C6.2207 10.7441 6.8099 10.5 7.5 10.5H22.5C23.1901 10.5 23.7793 10.7441 24.2676 11.2324C24.7559 11.7207 25 12.3099 25 13C25 13.6901 24.7559 14.2793 24.2676 14.7676C23.7793 15.2559 23.1901 15.5 22.5 15.5ZM22.5 11.75H13.125C12.9557 11.75 12.8092 11.8118 12.6855 11.9355C12.5618 12.0592 12.5 12.2057 12.5 12.375V13.625C12.5 13.7943 12.5618 13.9408 12.6855 14.0645C12.8092 14.1882 12.9557 14.25 13.125 14.25H22.5C22.8385 14.25 23.1315 14.1296 23.3789 13.8887C23.6263 13.6478 23.75 13.3548 23.75 13.0098C23.75 12.6647 23.6263 12.3685 23.3789 12.1211C23.1315 11.8737 22.8385 11.75 22.5 11.75ZM22.5 8H7.5C6.8099 8 6.2207 7.75586 5.73242 7.26758C5.24414 6.7793 5 6.1901 5 5.5C5 4.8099 5.24414 4.2207 5.73242 3.73242C6.2207 3.24414 6.8099 3 7.5 3H22.5C23.1901 3 23.7793 3.24414 24.2676 3.73242C24.7559 4.2207 25 4.8099 25 5.5C25 6.1901 24.7559 6.7793 24.2676 7.26758C23.7793 7.75586 23.1901 8 22.5 8ZM22.5 4.25H20.625C20.4557 4.25 20.3092 4.31185 20.1855 4.43555C20.0618 4.55924 20 4.70573 20 4.875V6.125C20 6.30729 20.0618 6.45703 20.1855 6.57422C20.3092 6.69141 20.4557 6.75 20.625 6.75H22.5C22.8385 6.75 23.1315 6.62956 23.3789 6.38867C23.6263 6.14779 23.75 5.85482 23.75 5.50977C23.75 5.16471 23.6263 4.86849 23.3789 4.62109C23.1315 4.3737 22.8385 4.25 22.5 4.25ZM7.5 18H22.5C23.1901 18 23.7793 18.2441 24.2676 18.7324C24.7559 19.2207 25 19.8099 25 20.5C25 21.1901 24.7559 21.7793 24.2676 22.2676C23.7793 22.7559 23.1901 23 22.5 23H7.5C6.8099 23 6.2207 22.7559 5.73242 22.2676C5.24414 21.7793 5 21.1901 5 20.5C5 19.8099 5.24414 19.2207 5.73242 18.7324C6.2207 18.2441 6.8099 18 7.5 18ZM16.25 21.125C16.25 21.2943 16.3118 21.4408 16.4355 21.5645C16.5592 21.6882 16.7057 21.75 16.875 21.75H22.5C22.8385 21.75 23.1315 21.6296 23.3789 21.3887C23.6263 21.1478 23.75 20.8548 23.75 20.5098C23.75 20.1647 23.6263 19.8685 23.3789 19.6211C23.1315 19.3737 22.8385 19.25 22.5 19.25H16.875C16.7057 19.25 16.5592 19.3118 16.4355 19.4355C16.3118 19.5592 16.25 19.7057 16.25 19.875V21.125Z" fill="#023E7D"/>
</g>
<defs>
<filter id="filter0_d" x="0" y="0" width="30" height="30" filterUnits="userSpaceOnUse" color-interpolation-filters="sRGB">
<feFlood flood-opacity="0" result="BackgroundImageFix"/>
<feColorMatrix in="SourceAlpha" type="matrix" values="0 0 0 0 0 0 0 0 0 0 0 0 0 0 0 0 0 0 127 0"/>
<feOffset dy="2"/>
<feGaussianBlur stdDeviation="2.5"/>
<feColorMatrix type="matrix" values="0 0 0 0 0.00784314 0 0 0 0 0.243137 0 0 0 0 0.490196 0 0 0 0.5 0"/>
<feBlend mode="normal" in2="BackgroundImageFix" result="effect1_dropShadow"/>
<feBlend mode="normal" in="SourceGraphic" in2="effect1_dropShadow" result="shape"/>
</filter>
</defs>
</svg>
