<svg width="30" height="30" viewBox="0 0 30 30" fill="none" xmlns="http://www.w3.org/2000/svg">
<path d="M3.05066 3.05066C7.11821 -1.01689 13.713 -1.01689 17.7805 3.05066C21.5028 6.77301 21.8179 12.6115 18.7273 16.6931L20.3305 18.2963L18.2963 20.3305L16.6931 18.7273C12.6115 21.818 6.77296 21.5029 3.0506 17.7805C-1.01688 13.7129 -1.01688 7.1182 3.05066 3.05066Z" fill="#005189"/>
<path d="M10.4119 18.9097C15.103 18.9097 18.9058 15.1069 18.9058 10.4158C18.9058 5.72474 15.103 1.92188 10.4119 1.92188C5.72083 1.92188 1.91797 5.72474 1.91797 10.4158C1.91797 15.1069 5.72083 18.9097 10.4119 18.9097Z" fill="#70C4EA"/>
<path d="M4.68837 15.4617C8.00547 18.7788 13.3835 18.7788 16.7006 15.4617C17.618 14.5443 18.2805 13.4689 18.6904 12.3234C18.3553 13.857 17.5939 15.3162 16.4015 16.5087C13.0844 19.8258 7.70631 19.8258 4.3892 16.5087C1.9895 14.109 1.32709 10.631 2.39941 7.63477C1.80235 10.3673 2.5637 13.337 4.68837 15.4617Z" fill="#023E7D"/>
<path d="M28.9346 28.9366C29.9101 27.9611 30.2832 26.7381 29.7639 26.2187L20.6966 17.8938C20.1772 17.3745 19.3254 17.3764 18.35 18.3519C17.3745 19.3274 17.3726 20.1792 17.8919 20.6985L26.2167 29.7658C26.7361 30.2852 27.9591 29.9121 28.9346 28.9366Z" fill="#1F356B"/>
<path d="M27.9468 24.5486L24.5486 27.9468L20.4492 23.4818L23.4818 20.4492L27.9468 24.5486Z" fill="#5BC0A4"/>
</svg>
