<svg width="48" height="36" viewBox="0 0 48 36" fill="none" xmlns="http://www.w3.org/2000/svg">
<path d="M19.9455 28.3088C16.7002 28.3786 13.4536 28.2684 10.2205 27.9788C10.2205 27.9788 10.6005 22.1728 13.2575 21.1298C15.9145 20.0868 16.5645 20.2298 17.4845 19.6768L17.5535 19.6388V18.0758C16.6021 17.1838 15.9108 16.0501 15.5535 14.7958C15.0838 14.3246 14.8132 13.6909 14.7975 13.0258C14.8017 12.5801 14.9294 12.1443 15.1665 11.7668C15.3235 8.49381 17.4055 6.32781 19.9535 6.32781C22.5015 6.32781 24.5845 8.49381 24.7405 11.7668C24.978 12.1441 25.1058 12.58 25.1095 13.0258C25.0938 13.6909 24.8232 14.3246 24.3535 14.7958C23.9968 16.0501 23.3054 17.1836 22.3535 18.0748V19.6378C22.3765 19.6498 22.3995 19.6628 22.4215 19.6758C23.3445 20.2318 23.9945 20.0838 26.6515 21.1288C29.3085 22.1738 29.6865 27.9778 29.6865 27.9778C26.4491 28.267 23.1981 28.3771 19.9485 28.3078L19.9455 28.3088ZM32.1785 0.0078125H2.4005C2.1753 0.00781215 1.9523 0.0522194 1.74427 0.138493C1.53625 0.224767 1.34727 0.351214 1.18817 0.510599C1.02906 0.669983 0.902945 0.859177 0.817035 1.06735C0.731125 1.27553 0.687108 1.49861 0.687503 1.72381V34.2818C0.687503 34.5067 0.731818 34.7294 0.817916 34.9372C0.904015 35.145 1.03021 35.3337 1.18929 35.4927C1.34837 35.6517 1.53722 35.7778 1.74504 35.8638C1.95287 35.9498 2.1756 35.9939 2.4005 35.9938H32.1755L47.5935 18.0028L32.1755 0.0098125L32.1785 0.0078125Z" fill="white"/>
</svg>
