<svg width="39" height="35" viewBox="0 0 39 35" fill="none" xmlns="http://www.w3.org/2000/svg">
<path d="M23.7123 1.23302L23.7043 1.22529C23.5534 1.07951 23.3455 0.997946 23.1289 1.00029C23.0994 0.999118 23.0697 1.00146 23.0412 1.00802H10.1563C7.86129 1.00873 6.00125 2.75388 6 4.90708V30.1009C6.00125 32.2539 7.86129 33.9988 10.1563 34H28.8437C31.139 33.9988 32.9993 32.2539 33 30.1009V10.2382C32.9985 10.0394 32.9156 9.84887 32.7684 9.7059L23.7123 1.23302ZM23.9281 3.54982L30.2905 9.50317H26.4857C25.0749 9.49942 23.9321 8.42739 23.9281 7.10387V3.54982ZM28.8437 32.4852H10.1563C8.74522 32.4815 7.60296 31.4095 7.59846 30.0857V4.89185C7.60296 3.56857 8.74522 2.49654 10.1563 2.49232H22.3294V7.10387C22.3307 9.25684 24.191 11.002 26.4857 11.0029H31.4015V30.0857C31.4003 31.4106 30.256 32.4841 28.8437 32.4852Z" fill="white"/>
<path d="M12.1591 22.8426H22.5106C22.9691 22.8426 23.3413 22.5089 23.3413 22.0971C23.3413 21.6853 22.9691 21.3516 22.5106 21.3516H12.1591C11.7002 21.3516 11.3281 21.6853 11.3281 22.0971C11.3281 22.5089 11.7002 22.8426 12.1591 22.8426Z" fill="white"/>
<path d="M28.3257 26.9922H12.1591C11.7002 26.9922 11.3281 27.3259 11.3281 27.7377C11.3281 28.1495 11.7002 28.4832 12.1591 28.4832H28.3257C28.7843 28.4832 29.1567 28.1495 29.1567 27.7377C29.1567 27.3259 28.7843 26.9922 28.3257 26.9922Z" fill="white"/>
<path d="M15.4864 11.754C17.1701 11.754 18.5352 10.5287 18.5352 9.01787C18.5352 7.50659 17.1701 6.28125 15.4864 6.28125C13.8024 6.28125 12.4375 7.50659 12.4375 9.01787C12.4383 10.5285 13.8026 11.7529 15.4864 11.754ZM15.4864 7.77995C16.2524 7.77995 16.8735 8.33738 16.8735 9.02509C16.8735 9.71257 16.2524 10.27 15.4864 10.27C14.7201 10.27 14.0989 9.71257 14.0989 9.02509C14.1002 8.33808 14.7208 7.78111 15.4864 7.77995Z" fill="white"/>
<path d="M12.1591 17.3277C12.6172 17.3265 12.9885 16.9932 12.9898 16.5821V15.9856C12.9898 14.7502 14.1054 13.7488 15.4822 13.7488C16.8584 13.7488 17.9743 14.7502 17.9743 15.9856V16.5821C17.9743 16.9939 18.3464 17.3277 18.8052 17.3277C19.2641 17.3277 19.6359 16.9939 19.6359 16.5821V15.9856C19.6359 13.9269 17.7761 12.2578 15.4822 12.2578C13.1882 12.2578 11.3281 13.9269 11.3281 15.9856V16.5821C11.3294 16.9932 11.7008 17.3265 12.1591 17.3277Z" fill="white"/>
</svg>
