<svg width="37" height="37" viewBox="0 0 37 37" fill="none" xmlns="http://www.w3.org/2000/svg">
<g filter="url(#filter0_d)">
<path d="M30.5628 25.1238C31.1163 24.2382 31.4484 23.242 31.4484 22.2457C31.4484 19.3676 29.1238 17.043 26.2457 17.043C23.3676 17.043 21.043 19.3676 21.043 22.2457C21.043 25.1238 23.3676 27.4484 26.2457 27.4484C27.242 27.4484 28.1275 27.227 28.9024 26.6735L31.227 28.9981L32.8875 27.3377L30.5628 25.1238ZM26.135 25.1238C24.4745 25.1238 23.2569 23.7954 23.2569 22.2457C23.2569 20.5852 24.5852 19.3676 26.135 19.3676C27.7954 19.3676 29.0131 20.6959 29.0131 22.2457C29.1238 23.7954 27.7954 25.1238 26.135 25.1238Z" fill="white"/>
<path d="M5.77114 24.1318V4.20645C5.77114 2.8781 6.8781 1.66044 8.31715 1.66044H28.6852C30.0136 1.66044 31.2312 2.7674 31.2312 4.20645V15.2761H32.8917V4.20645C32.8917 1.88183 31.0099 0 28.6852 0H8.20645C5.88183 0 4 1.88183 4 4.20645V24.1318C4 26.4564 5.88183 28.3382 8.20645 28.3382H19.2761V26.6778H8.20645C6.8781 26.6778 5.77114 25.4601 5.77114 24.1318Z" fill="white"/>
<path d="M24.1489 6.75391H13.6328V8.41435H24.1489V6.75391Z" fill="white"/>
<path d="M24.1489 12.8438H13.6328V14.5042H24.1489V12.8438Z" fill="white"/>
<path d="M18.6141 19.4844H13.6328V21.1448H18.6141V19.4844Z" fill="white"/>
<path d="M9.31279 8.85604C10.2298 8.85604 10.9732 8.11264 10.9732 7.1956C10.9732 6.27856 10.2298 5.53516 9.31279 5.53516C8.39575 5.53516 7.65234 6.27856 7.65234 7.1956C7.65234 8.11264 8.39575 8.85604 9.31279 8.85604Z" fill="white"/>
<path d="M9.31279 15.1646C10.2298 15.1646 10.9732 14.4212 10.9732 13.5042C10.9732 12.5872 10.2298 11.8438 9.31279 11.8438C8.39575 11.8438 7.65234 12.5872 7.65234 13.5042C7.65234 14.4212 8.39575 15.1646 9.31279 15.1646Z" fill="white"/>
<path d="M9.31279 21.5826C10.2298 21.5826 10.9732 20.8392 10.9732 19.9222C10.9732 19.0051 10.2298 18.2617 9.31279 18.2617C8.39575 18.2617 7.65234 19.0051 7.65234 19.9222C7.65234 20.8392 8.39575 21.5826 9.31279 21.5826Z" fill="white"/>
</g>
<defs>
<filter id="filter0_d" x="0" y="0" width="36.8917" height="36.9981" filterUnits="userSpaceOnUse" color-interpolation-filters="sRGB">
<feFlood flood-opacity="0" result="BackgroundImageFix"/>
<feColorMatrix in="SourceAlpha" type="matrix" values="0 0 0 0 0 0 0 0 0 0 0 0 0 0 0 0 0 0 127 0"/>
<feOffset dy="4"/>
<feGaussianBlur stdDeviation="2"/>
<feColorMatrix type="matrix" values="0 0 0 0 0 0 0 0 0 0 0 0 0 0 0 0 0 0 0.25 0"/>
<feBlend mode="normal" in2="BackgroundImageFix" result="effect1_dropShadow"/>
<feBlend mode="normal" in="SourceGraphic" in2="effect1_dropShadow" result="shape"/>
</filter>
</defs>
</svg>
