<svg width="31" height="31" viewBox="0 0 31 31" fill="none" xmlns="http://www.w3.org/2000/svg">
<path d="M7.56968 12.4405C7.31613 12.6956 7.17383 13.0407 7.17383 13.4005C7.17383 13.7602 7.31613 14.1053 7.56968 14.3605L14.2987 21.0685C14.5454 21.3142 14.8771 21.4557 15.2253 21.4635C15.5734 21.4713 15.9112 21.3449 16.1687 21.1105L22.7987 14.5015C22.9281 14.3767 23.0315 14.2274 23.1026 14.0623C23.1738 13.8972 23.2114 13.7195 23.2133 13.5397C23.2151 13.3599 23.1812 13.1816 23.1134 13.015C23.0456 12.8485 22.9453 12.6971 22.8185 12.5697C22.6916 12.4423 22.5406 12.3414 22.3744 12.273C22.2081 12.2045 22.0299 12.1698 21.8501 12.1709C21.6703 12.172 21.4925 12.2088 21.3271 12.2793C21.1617 12.3498 21.012 12.4525 20.8867 12.5815L15.1917 18.1915L9.49168 12.4325C9.36516 12.3064 9.21498 12.2066 9.04978 12.1388C8.88458 12.0709 8.7076 12.0364 8.52902 12.0371C8.35043 12.0379 8.17375 12.0739 8.00912 12.1431C7.84448 12.2123 7.69515 12.3134 7.56968 12.4405Z" fill="#410F8A" stroke="#023E7D"/>
<path d="M0.566406 15.625C0.566406 18.5176 1.42415 21.3451 3.03116 23.7502C4.63818 26.1553 6.92229 28.0298 9.59466 29.1367C12.267 30.2437 15.2076 30.5333 18.0446 29.969C20.8816 29.4047 23.4875 28.0118 25.5328 25.9664C27.5782 23.9211 28.9711 21.3152 29.5354 18.4782C30.0997 15.6412 29.8101 12.7006 28.7031 10.0283C27.5962 7.35589 25.7217 5.07177 23.3166 3.46476C20.9116 1.85774 18.084 1 15.1914 1C13.2708 0.999737 11.3689 1.37784 9.59435 2.11273C7.81984 2.84761 6.20749 3.92487 4.84938 5.28298C3.49127 6.64109 2.41402 8.25344 1.67913 10.0279C0.944251 11.8024 0.566144 13.7043 0.566406 15.625ZM23.9384 6.878C26.2583 9.19785 27.5615 12.3442 27.5615 15.625C27.5615 18.9058 26.2583 22.0522 23.9384 24.372C21.6186 26.6918 18.4722 27.9951 15.1914 27.9951C11.9106 27.9951 8.76426 26.6918 6.44441 24.372C4.12456 22.0522 2.82128 18.9058 2.82128 15.625C2.82128 12.3442 4.12456 9.19785 6.44441 6.878C8.76426 4.55815 11.9106 3.25487 15.1914 3.25487C18.4722 3.25487 21.6186 4.55815 23.9384 6.878Z" fill="#410F8A" stroke="#023E7D"/>
</svg>
