<svg width="36" height="42" viewBox="0 0 36 42" fill="none" xmlns="http://www.w3.org/2000/svg">
<g filter="url(#filter0_d)">
<path d="M27.8738 4.38965H24.7238V3.03366C24.7238 2.59494 24.2265 2.39555 23.7706 2.39555H21.3252C20.745 0.800237 19.2943 0.00258234 17.6364 0.00258234C15.9967 -0.0567322 14.5053 0.910698 13.9475 2.39555H11.5436C11.0876 2.39555 10.6317 2.59494 10.6317 3.03366V4.38965H7.48162C5.61491 4.40881 4.08774 5.82579 4 7.62011V30.4729C4 32.2277 5.65791 33.5039 7.48162 33.5039H27.8738C29.6976 33.5039 31.3555 32.2277 31.3555 30.4729V7.62019C31.2677 5.82579 29.7406 4.40881 27.8738 4.38965ZM12.2895 3.99086H14.5692C14.9671 3.94414 15.2867 3.65283 15.3567 3.27298C15.6022 2.2444 16.54 1.50606 17.6364 1.47827C18.7226 1.50995 19.6463 2.25058 19.8745 3.27298C19.9488 3.66596 20.2896 3.96101 20.7035 3.99086H23.066V7.18148H12.2895V3.99086ZM29.6976 30.4729C29.6976 31.3504 28.7857 31.9087 27.8738 31.9087H7.48162C6.56976 31.9087 5.65791 31.3504 5.65791 30.4729V7.62019C5.74248 6.70688 6.52883 6.00175 7.48162 5.98503H10.6316V8.01906C10.6754 8.46594 11.0776 8.80022 11.5435 8.77686H23.7705C24.2449 8.80182 24.6597 8.47212 24.7238 8.01906V5.98496H27.8738C28.8265 6.00175 29.6129 6.70681 29.6975 7.62011V30.4729H29.6976Z" fill="white"/>
<path d="M14.486 17.8268C14.1751 17.5114 13.659 17.4937 13.3254 17.787L10.6728 20.2198L9.55371 19.103C9.2428 18.7877 8.72666 18.77 8.39314 19.0632C8.07208 19.3868 8.07208 19.8961 8.39314 20.2198L10.0925 21.8949C10.2395 22.0533 10.452 22.141 10.6727 22.1342C10.8913 22.1312 11.0999 22.0452 11.2529 21.8949L14.4859 18.9435C14.8064 18.6606 14.8278 18.1812 14.5337 17.8729C14.5186 17.8568 14.5027 17.8415 14.486 17.8268Z" fill="white"/>
<path d="M26.3814 19.5469H16.8485C16.3907 19.5469 16.0195 19.904 16.0195 20.3445C16.0195 20.7851 16.3907 21.1422 16.8485 21.1422H26.3814C26.8392 21.1422 27.2104 20.7851 27.2104 20.3445C27.2104 19.904 26.8392 19.5469 26.3814 19.5469Z" fill="white"/>
<path d="M14.486 11.444C14.1751 11.1286 13.659 11.1109 13.3254 11.4041L10.6728 13.837L9.55371 12.7202C9.2428 12.4049 8.72666 12.3871 8.39314 12.6804C8.07208 13.004 8.07208 13.5133 8.39314 13.837L10.0925 15.512C10.2395 15.6705 10.452 15.7581 10.6727 15.7514C10.8913 15.7484 11.0999 15.6623 11.2529 15.512L14.4859 12.5607C14.8064 12.2778 14.8278 11.7984 14.5337 11.4901C14.5186 11.474 14.5027 11.4586 14.486 11.444Z" fill="white"/>
<path d="M26.3814 13.1641H16.8485C16.3907 13.1641 16.0195 13.5212 16.0195 13.9617C16.0195 14.4023 16.3907 14.7594 16.8485 14.7594H26.3814C26.8392 14.7594 27.2104 14.4023 27.2104 13.9617C27.2104 13.5212 26.8392 13.1641 26.3814 13.1641Z" fill="white"/>
<path d="M14.486 24.2096C14.1751 23.8942 13.659 23.8765 13.3254 24.1697L10.6728 26.6025L9.55371 25.4858C9.2428 25.1704 8.72666 25.1527 8.39314 25.446C8.07208 25.7696 8.07208 26.2789 8.39314 26.6025L10.0925 28.2776C10.2395 28.4361 10.452 28.5237 10.6727 28.517C10.8913 28.514 11.0999 28.4279 11.2529 28.2776L14.4859 25.3263C14.8064 25.0434 14.8278 24.564 14.5337 24.2557C14.5186 24.2397 14.5027 24.2243 14.486 24.2096Z" fill="white"/>
<path d="M26.3814 25.9258H16.8485C16.3907 25.9258 16.0195 26.2829 16.0195 26.7234C16.0195 27.164 16.3907 27.5211 16.8485 27.5211H26.3814C26.8392 27.5211 27.2104 27.164 27.2104 26.7234C27.2104 26.2829 26.8392 25.9258 26.3814 25.9258Z" fill="white"/>
</g>
<defs>
<filter id="filter0_d" x="0" y="0" width="35.3555" height="41.5039" filterUnits="userSpaceOnUse" color-interpolation-filters="sRGB">
<feFlood flood-opacity="0" result="BackgroundImageFix"/>
<feColorMatrix in="SourceAlpha" type="matrix" values="0 0 0 0 0 0 0 0 0 0 0 0 0 0 0 0 0 0 127 0"/>
<feOffset dy="4"/>
<feGaussianBlur stdDeviation="2"/>
<feColorMatrix type="matrix" values="0 0 0 0 0 0 0 0 0 0 0 0 0 0 0 0 0 0 0.25 0"/>
<feBlend mode="normal" in2="BackgroundImageFix" result="effect1_dropShadow"/>
<feBlend mode="normal" in="SourceGraphic" in2="effect1_dropShadow" result="shape"/>
</filter>
</defs>
</svg>
