<?xml version="1.0"?>
<svg xmlns="http://www.w3.org/2000/svg" xmlns:xlink="http://www.w3.org/1999/xlink" xmlns:svgjs="http://svgjs.com/svgjs" version="1.1" width="512" height="512" x="0" y="0" viewBox="0 0 431.51345 431" style="enable-background:new 0 0 512 512" xml:space="preserve"><g><path xmlns="http://www.w3.org/2000/svg" d="m211.492188.257812h-152.429688c-14.082031 0-25.5 11.414063-25.5 25.5 0 14.082032 11.417969 25.5 25.5 25.5h29.777344c3.867187 0 7 3.132813 7 7 0 3.863282-3.132813 7-7 7h-41.871094c-14.082031 0-25.5 11.414063-25.5 25.5 0 14.082032 11.417969 25.5 25.5 25.5h32.566406c3.867188 0 7 3.132813 7 7 0 3.863282-3.132812 7-7 7h-40.941406c-14.082031 0-25.5 11.414063-25.5 25.5 0 14.082032 11.417969 25.5 25.5 25.5h31.636719c2.632812.125 4.988281 1.660157 6.171875 4.015626.613281 1.175781.933594 2.480468.933594 3.804687.011718 3.902344-3.101563 7.09375-7 7.179687h-44.769532c-6.738281-.144531-13.25 2.429688-18.074218 7.136719-4.824219 4.617188-7.5312505 11.011719-7.492188 17.6875.0273438 13.96875 11.699219 25.175781 26.019531 25.175781h166.476563c3.929687.144532 7.035156 3.378907 7.015625 7.3125v57.085938c-.015625 10.496094 4.136719 20.566406 11.550781 27.992188 7.410156 7.429687 17.472656 11.605468 27.964844 11.609374h21.894531l-.589844-2.800781c-4.335937-20.382812-5.21875-53.425781-2.007812-75.179687l2.074219-14.046875c1.648437-11.425781 9.082031-21.183594 19.65625-25.808594 3.386718-1.488281 6.761718-3.109375 10.03125-4.8125l11.425781-5.953125v-196.136719l-11.417969-5.984375c-24.277344-12.625-51.234375-19.238281-78.601562-19.277344zm0 0" fill="#ff0000" data-original="#000000" style=""/><path xmlns="http://www.w3.org/2000/svg" d="m364.273438 208.992188c11.679687 0 21.144531-9.464844 21.144531-21.140626 0-11.679687-9.464844-21.144531-21.144531-21.144531-11.675782 0-21.144532 9.464844-21.144532 21.144531.015625 11.671876 9.472656 21.128907 21.144532 21.140626zm0 0" fill="#ff0000" data-original="#000000" style=""/><path xmlns="http://www.w3.org/2000/svg" d="m315.511719 255.257812h116v-255h-116zm48.761719-102.550781c19.410156 0 35.144531 15.734375 35.144531 35.144531 0 19.40625-15.734375 35.140626-35.144531 35.140626-19.410157 0-35.144532-15.734376-35.144532-35.140626.023438-19.402343 15.746094-35.125 35.144532-35.144531zm0 0" fill="#ff0000" data-original="#000000" style=""/></g></svg>
