<svg width="35" height="31" viewBox="0 0 35 31" fill="none" xmlns="http://www.w3.org/2000/svg">
<path d="M29.873 16.3306H26.447C25.9807 16.3306 25.5293 16.3943 25.0996 16.5115C24.2521 14.8455 22.5218 13.7007 20.528 13.7007H14.472C12.4782 13.7007 10.7479 14.8455 9.90035 16.5115C9.47071 16.3943 9.01927 16.3306 8.55299 16.3306H5.12695C2.29995 16.3306 0 18.6306 0 21.4576V26.9344C0 28.6306 1.37997 30.0106 3.07617 30.0106H31.9238C33.62 30.0106 35 28.6306 35 26.9344V21.4576C35 18.6306 32.7001 16.3306 29.873 16.3306ZM9.34507 18.8278V27.9599H3.07617C2.51077 27.9599 2.05078 27.4999 2.05078 26.9345V21.4577C2.05078 19.7615 3.43075 18.3815 5.12695 18.3815H8.55299C8.83135 18.3815 9.10089 18.4193 9.35751 18.4889C9.35013 18.6011 9.34507 18.7139 9.34507 18.8278ZM23.6042 27.9599H11.3959V18.8277C11.3959 17.1315 12.7758 15.7516 14.472 15.7516H20.528C22.2242 15.7516 23.6042 17.1315 23.6042 18.8277V27.9599ZM32.9492 26.9345C32.9492 27.4999 32.4892 27.9599 31.9238 27.9599H25.6549V18.8277C25.6549 18.7138 25.6499 18.601 25.6425 18.4889C25.8991 18.4193 26.1687 18.3814 26.447 18.3814H29.873C31.5692 18.3814 32.9492 19.7614 32.9492 21.4576V26.9345Z" fill="white"/>
<path d="M6.84012 6.64773C4.32798 6.64773 2.28424 8.69147 2.28424 11.2036C2.28417 13.7157 4.32798 15.7595 6.84012 15.7595C9.35219 15.7595 11.396 13.7157 11.396 11.2036C11.396 8.69147 9.35226 6.64773 6.84012 6.64773ZM6.84005 13.7087C5.45872 13.7087 4.33496 12.5849 4.33496 11.2036C4.33496 9.82227 5.45872 8.69851 6.84005 8.69851C8.22139 8.69851 9.34515 9.82227 9.34515 11.2036C9.34515 12.5849 8.22139 13.7087 6.84005 13.7087Z" fill="white"/>
<path d="M17.5004 0.989258C14.1443 0.989258 11.4139 3.71967 11.4139 7.07584C11.4139 10.432 14.1443 13.1624 17.5004 13.1624C20.8566 13.1624 23.587 10.432 23.587 7.07584C23.587 3.71974 20.8566 0.989258 17.5004 0.989258ZM17.5004 11.1116C15.2751 11.1116 13.4646 9.30121 13.4646 7.07584C13.4646 4.85054 15.2751 3.04004 17.5004 3.04004C19.7258 3.04004 21.5362 4.85047 21.5362 7.07584C21.5362 9.30121 19.7258 11.1116 17.5004 11.1116Z" fill="white"/>
<path d="M28.16 6.64773C25.6479 6.64773 23.6041 8.69147 23.6041 11.2036C23.6042 13.7157 25.6479 15.7595 28.16 15.7595C30.6721 15.7595 32.7159 13.7157 32.7159 11.2036C32.7159 8.69147 30.6721 6.64773 28.16 6.64773ZM28.16 13.7087C26.7787 13.7087 25.6549 12.5849 25.6549 11.2036C25.655 9.82227 26.7787 8.69851 28.16 8.69851C29.5413 8.69851 30.6651 9.82227 30.6651 11.2036C30.6651 12.5849 29.5413 13.7087 28.16 13.7087Z" fill="white"/>
</svg>
