<svg width="31" height="30" viewBox="0 0 31 30" fill="none" xmlns="http://www.w3.org/2000/svg">
<path d="M1.77114 24.1318V4.20645C1.77114 2.8781 2.8781 1.66044 4.31715 1.66044H24.6852C26.0136 1.66044 27.2312 2.7674 27.2312 4.20645V18H28.8917V4.20645C28.8917 1.88183 27.0099 0 24.6852 0H4.20645C1.88183 0 0 1.88183 0 4.20645V24.1318C0 26.4564 1.88183 28.3382 4.20645 28.3382H18V26.6778H4.20645C2.8781 26.6778 1.77114 25.4601 1.77114 24.1318Z" fill="white"/>
<path d="M21.1675 27.58C21.2544 27.718 21.3845 27.8235 21.5375 27.88H21.5975C21.6931 27.9002 21.7919 27.9002 21.8875 27.88C21.9814 27.8687 22.0726 27.8417 22.1575 27.8L23.0875 27.4C23.2486 27.503 23.4155 27.5965 23.5875 27.68L23.6875 28.68C23.7196 28.8344 23.8002 28.9746 23.9175 29.08C24.044 29.1887 24.2014 29.2551 24.3675 29.27H26.5275C26.7109 29.2749 26.8894 29.2107 27.0275 29.09C27.0961 29.0367 27.1534 28.9704 27.1963 28.8949C27.2392 28.8194 27.2668 28.7362 27.2775 28.65L27.3675 27.65C27.5436 27.5721 27.714 27.4818 27.8775 27.38L28.8275 27.78C28.9801 27.8304 29.1449 27.8304 29.2975 27.78C29.451 27.7399 29.5898 27.6566 29.6975 27.54L30.7775 25.82C30.8669 25.6733 30.8956 25.4975 30.8575 25.33C30.8181 25.1581 30.7143 25.0078 30.5675 24.91L29.7775 24.35C29.7975 24.1639 29.7975 23.9761 29.7775 23.79L30.6275 23.23C30.7715 23.1339 30.8749 22.9878 30.9175 22.82C30.9597 22.6538 30.9345 22.4777 30.8475 22.33L29.8375 20.72C29.7381 20.5664 29.5846 20.4558 29.4075 20.41C29.2274 20.3606 29.0355 20.3784 28.8675 20.46L27.9275 20.86C27.764 20.7582 27.5936 20.6679 27.4175 20.59L27.3275 19.59C27.3066 19.4288 27.2242 19.2819 27.0975 19.18C26.9731 19.0757 26.8193 19.0128 26.6575 19H24.4875C24.3022 19.0014 24.1226 19.0647 23.9775 19.18C23.843 19.2938 23.7571 19.4549 23.7375 19.63L23.6475 20.63C23.4692 20.7074 23.2985 20.8011 23.1375 20.91L22.1375 20.5C21.9883 20.4429 21.8252 20.4324 21.6699 20.4699C21.5146 20.5074 21.3743 20.5911 21.2675 20.71L20.1975 22.41C20.1075 22.5602 20.0788 22.7392 20.1175 22.91C20.1613 23.0827 20.2683 23.2326 20.4175 23.33L21.2675 23.89C21.2574 24.0732 21.2574 24.2568 21.2675 24.44L20.3775 25C20.2899 25.0386 20.2121 25.0964 20.1498 25.1691C20.0875 25.2418 20.0423 25.3275 20.0175 25.42C19.9978 25.5013 19.9947 25.5857 20.0084 25.6682C20.0222 25.7507 20.0525 25.8295 20.0975 25.9L21.1675 27.58ZM22.5275 24.58V24.48C22.4774 24.2359 22.4774 23.9841 22.5275 23.74L22.5975 23.3L21.4675 22.62L22.0675 21.62L23.2975 22.15L23.6575 21.88C23.8873 21.7176 24.1358 21.5834 24.3975 21.48L24.8275 21.32L24.9375 20.1H26.1175L26.2375 21.32L26.6475 21.48C26.9192 21.5863 27.1776 21.7239 27.4175 21.89L27.7775 22.14L29.0175 21.68L29.6275 22.62L28.5275 23.34L28.5775 23.69V23.78C28.6276 24.0275 28.6276 24.2825 28.5775 24.53L28.5175 24.95L29.5175 25.68L28.9075 26.68L27.6775 26.15L27.3175 26.42C27.0925 26.5901 26.843 26.725 26.5775 26.82L26.1575 26.98L26.0375 28.2H24.8875L24.7675 26.98L24.3575 26.82C24.0856 26.7099 23.8273 26.5689 23.5875 26.4L23.2275 26.16L22.0175 26.63L21.4275 25.7L22.1875 25.22L22.5775 24.96L22.5275 24.58Z" fill="white"/>
<path d="M23.8466 25.669C24.2019 25.9738 24.6344 26.1745 25.0966 26.249C25.5689 26.3345 26.0555 26.2931 26.5066 26.129C26.9395 25.968 27.3176 25.6871 27.5966 25.319C27.8981 24.9162 28.0367 24.4146 27.9848 23.9142C27.9329 23.4138 27.6943 22.9513 27.3166 22.619C26.8513 22.2049 26.2495 21.977 25.6266 21.979C25.134 21.9579 24.6454 22.0757 24.2166 22.319C23.8241 22.5528 23.5133 22.902 23.3266 23.319C23.137 23.707 23.0875 24.1486 23.1866 24.569C23.2871 24.9952 23.5178 25.3797 23.8466 25.669Z" fill="white"/>
<path d="M7 22V19.3301H15.7298V22H7ZM7.40137 21.5641H10.5712V19.766H7.40137V21.5641Z" fill="white"/>
<path d="M18.5896 17.2596H7V14.5897H18.5896V17.2596ZM7.40137 16.8237H13.9237V15.0256H7.40137V16.8237Z" fill="white"/>
<path d="M18.5896 12.5737H7V9.90385H18.5896V12.5737ZM7.40137 12.1378H12.1677V10.3397H7.40137V12.1378Z" fill="white"/>
<path d="M17.235 7.66987H7V5H17.235V7.66987ZM7.40137 7.23397H14.8267V5.4359H7.40137V7.23397Z" fill="white"/>
</svg>
