<svg width="555" height="145" viewBox="0 0 555 145" fill="none" xmlns="http://www.w3.org/2000/svg">
<path opacity="0.5" d="M174.814 1.622V14.536L166.3 1.622H164.76V17H166.3V4.064L174.814 17H176.354V1.622H174.814ZM192.25 10.994C192.25 7.166 189.632 4.812 186.244 4.812C182.878 4.812 180.238 7.166 180.238 10.994C180.238 14.8 182.812 17.176 186.2 17.176C189.588 17.176 192.25 14.8 192.25 10.994ZM181.8 10.994C181.8 7.694 183.934 6.154 186.222 6.154C188.51 6.154 190.666 7.694 190.666 10.994C190.666 14.294 188.466 15.834 186.2 15.834C183.912 15.834 181.8 14.294 181.8 10.994ZM211.566 6.088C211.566 7.958 210.444 9.322 207.936 9.322H204.834V2.92H207.914C210.51 2.92 211.566 4.152 211.566 6.088ZM203.294 1.622V17H204.834V10.576H207.672L211.478 17H213.326L209.366 10.466C211.962 9.982 213.15 8.2 213.15 6.088C213.15 3.558 211.478 1.622 207.914 1.622H203.294ZM222.432 6.132C224.654 6.132 226.678 7.54 226.612 10.334H218.164C218.34 7.54 220.254 6.132 222.432 6.132ZM227.998 13.194H226.37C225.93 14.8 224.544 15.878 222.498 15.878C220.254 15.878 218.296 14.404 218.164 11.588H228.13C228.174 11.17 228.174 10.862 228.174 10.378C228.174 7.32 226.018 4.812 222.498 4.812C219.044 4.812 216.602 7.166 216.602 10.994C216.602 14.8 219.088 17.176 222.498 17.176C225.512 17.176 227.448 15.46 227.998 13.194ZM231.388 10.994C231.388 14.8 233.83 17.176 237.218 17.176C240.232 17.176 242.19 15.482 242.74 13.084H241.09C240.672 14.844 239.242 15.878 237.218 15.878C234.864 15.878 232.95 14.25 232.95 10.994C232.95 7.738 234.864 6.132 237.218 6.132C239.242 6.132 240.694 7.188 241.09 8.904H242.74C242.19 6.418 240.232 4.812 237.218 4.812C233.83 4.812 231.388 7.188 231.388 10.994ZM257.992 10.994C257.992 7.166 255.374 4.812 251.986 4.812C248.62 4.812 245.98 7.166 245.98 10.994C245.98 14.8 248.554 17.176 251.942 17.176C255.33 17.176 257.992 14.8 257.992 10.994ZM247.542 10.994C247.542 7.694 249.676 6.154 251.964 6.154C254.252 6.154 256.408 7.694 256.408 10.994C256.408 14.294 254.208 15.834 251.942 15.834C249.654 15.834 247.542 14.294 247.542 10.994ZM263.439 10.29C263.439 7.276 265.133 6.374 267.135 6.374H267.553V4.768C265.485 4.768 264.099 5.648 263.439 7.122V4.988H261.899V17H263.439V10.29ZM270.266 10.972C270.266 14.734 272.708 17.176 276.008 17.176C278.384 17.176 280.056 15.9 280.76 14.316V17H282.3V0.72H280.76V7.584C279.99 6 278.186 4.812 276.03 4.812C272.708 4.812 270.266 7.21 270.266 10.972ZM280.76 10.994C280.76 13.986 278.758 15.834 276.294 15.834C273.764 15.834 271.828 14.008 271.828 10.972C271.828 7.914 273.764 6.154 276.294 6.154C278.758 6.154 280.76 8.002 280.76 10.994ZM295.231 13.81C295.165 9.564 288.059 11.302 288.059 8.046C288.059 6.99 289.071 6.132 290.677 6.132C292.503 6.132 293.493 7.144 293.581 8.486H295.121C294.989 6.176 293.295 4.812 290.721 4.812C288.191 4.812 286.497 6.286 286.497 8.068C286.497 12.578 293.713 10.84 293.713 13.81C293.713 14.954 292.745 15.878 291.029 15.878C289.071 15.878 287.927 14.932 287.795 13.612H286.211C286.409 15.812 288.323 17.176 291.051 17.176C293.537 17.176 295.231 15.746 295.231 13.81ZM306.367 17H307.907V9.916H313.627V8.64H307.907V2.898H314.683V1.622H306.367V17ZM329.625 10.994C329.625 7.166 327.007 4.812 323.619 4.812C320.253 4.812 317.613 7.166 317.613 10.994C317.613 14.8 320.187 17.176 323.575 17.176C326.963 17.176 329.625 14.8 329.625 10.994ZM319.175 10.994C319.175 7.694 321.309 6.154 323.597 6.154C325.885 6.154 328.041 7.694 328.041 10.994C328.041 14.294 325.841 15.834 323.575 15.834C321.287 15.834 319.175 14.294 319.175 10.994ZM343.938 4.988H342.398V11.522C342.398 14.448 340.836 15.856 338.592 15.856C336.392 15.856 334.94 14.492 334.94 11.83V4.988H333.422V12.006C333.422 15.526 335.578 17.198 338.306 17.198C340.088 17.198 341.672 16.406 342.398 14.888V17H343.938V4.988ZM357.552 17H359.07V9.96C359.07 6.44 356.914 4.768 354.186 4.768C352.404 4.768 350.864 5.538 350.094 7.034V4.988H348.554V17H350.094V10.444C350.094 7.518 351.656 6.11 353.9 6.11C356.1 6.11 357.552 7.474 357.552 10.136V17ZM362.872 10.972C362.872 14.734 365.314 17.176 368.614 17.176C370.99 17.176 372.662 15.9 373.366 14.316V17H374.906V0.72H373.366V7.584C372.596 6 370.792 4.812 368.636 4.812C365.314 4.812 362.872 7.21 362.872 10.972ZM373.366 10.994C373.366 13.986 371.364 15.834 368.9 15.834C366.37 15.834 364.434 14.008 364.434 10.972C364.434 7.914 366.37 6.154 368.9 6.154C371.364 6.154 373.366 8.002 373.366 10.994ZM387.231 12.93H388.529L388.727 1.622H387.055L387.231 12.93ZM389.057 15.966C389.057 15.328 388.573 14.844 387.957 14.844C387.319 14.844 386.835 15.328 386.835 15.966C386.835 16.604 387.319 17.11 387.957 17.11C388.573 17.11 389.057 16.604 389.057 15.966Z" fill="black"/>
<path d="M1.11752 128.3C1.11752 132.92 4.37352 136.132 8.64152 136.132C12.0735 136.132 14.6255 134.416 15.7255 131.512H13.9215C13.0635 133.514 11.2595 134.79 8.64152 134.79C5.27552 134.79 2.70152 132.304 2.70152 128.3C2.70152 124.274 5.27552 121.788 8.64152 121.788C11.2595 121.788 13.0635 123.064 13.9215 125.11H15.7255C14.6255 122.162 12.0735 120.446 8.64152 120.446C4.37352 120.446 1.11752 123.68 1.11752 128.3ZM19.8942 136H21.4342V119.72H19.8942V136ZM26.0215 136H27.5615V123.988H26.0215V136ZM26.7915 121.722C27.4075 121.722 27.9135 121.238 27.9135 120.578C27.9135 119.918 27.4075 119.456 26.7915 119.456C26.1755 119.456 25.6695 119.918 25.6695 120.578C25.6695 121.238 26.1755 121.722 26.7915 121.722ZM31.4449 129.994C31.4449 133.8 33.8869 136.176 37.2749 136.176C40.2889 136.176 42.2469 134.482 42.7969 132.084H41.1469C40.7289 133.844 39.2989 134.878 37.2749 134.878C34.9209 134.878 33.0069 133.25 33.0069 129.994C33.0069 126.738 34.9209 125.132 37.2749 125.132C39.2989 125.132 40.7509 126.188 41.1469 127.904H42.7969C42.2469 125.418 40.2889 123.812 37.2749 123.812C33.8869 123.812 31.4449 126.188 31.4449 129.994ZM46.7411 136H48.2811V130.61L53.2311 136H55.3211L49.5791 129.972L55.2771 123.988H53.1211L48.2811 129.356V119.72H46.7411V136ZM75.4265 136H76.9665V120.622H75.4265V127.53H67.0885V120.622H65.5485V136H67.0885V128.806H75.4265V136ZM86.7061 125.132C88.9281 125.132 90.9521 126.54 90.8861 129.334H82.4381C82.6141 126.54 84.5281 125.132 86.7061 125.132ZM92.2721 132.194H90.6441C90.2041 133.8 88.8181 134.878 86.7721 134.878C84.5281 134.878 82.5701 133.404 82.4381 130.588H92.4041C92.4481 130.17 92.4481 129.862 92.4481 129.378C92.4481 126.32 90.2921 123.812 86.7721 123.812C83.3181 123.812 80.8761 126.166 80.8761 129.994C80.8761 133.8 83.3621 136.176 86.7721 136.176C89.7861 136.176 91.7221 134.46 92.2721 132.194ZM97.9057 129.29C97.9057 126.276 99.5997 125.374 101.602 125.374H102.02V123.768C99.9517 123.768 98.5657 124.648 97.9057 126.122V123.988H96.3657V136H97.9057V129.29ZM110.562 125.132C112.784 125.132 114.808 126.54 114.742 129.334H106.294C106.47 126.54 108.384 125.132 110.562 125.132ZM116.128 132.194H114.5C114.06 133.8 112.674 134.878 110.628 134.878C108.384 134.878 106.426 133.404 106.294 130.588H116.26C116.304 130.17 116.304 129.862 116.304 129.378C116.304 126.32 114.148 123.812 110.628 123.812C107.174 123.812 104.732 126.166 104.732 129.994C104.732 133.8 107.218 136.176 110.628 136.176C113.642 136.176 115.578 134.46 116.128 132.194ZM126.259 121.898H130.549V136H132.089V121.898H136.357V120.622H126.259V121.898ZM151.197 129.994C151.197 126.166 148.579 123.812 145.191 123.812C141.825 123.812 139.185 126.166 139.185 129.994C139.185 133.8 141.759 136.176 145.147 136.176C148.535 136.176 151.197 133.8 151.197 129.994ZM140.747 129.994C140.747 126.694 142.881 125.154 145.169 125.154C147.457 125.154 149.613 126.694 149.613 129.994C149.613 133.294 147.413 134.834 145.147 134.834C142.859 134.834 140.747 133.294 140.747 129.994ZM172.493 136H174.121L168.533 120.82H166.795L161.185 136H162.813L164.155 132.348H171.151L172.493 136ZM170.689 131.072H164.617L167.653 122.756L170.689 131.072ZM176.989 129.972C176.989 133.734 179.431 136.176 182.731 136.176C185.107 136.176 186.779 134.9 187.483 133.316V136H189.023V119.72H187.483V126.584C186.713 125 184.909 123.812 182.753 123.812C179.431 123.812 176.989 126.21 176.989 129.972ZM187.483 129.994C187.483 132.986 185.481 134.834 183.017 134.834C180.487 134.834 178.551 133.008 178.551 129.972C178.551 126.914 180.487 125.154 183.017 125.154C185.481 125.154 187.483 127.002 187.483 129.994ZM192.934 129.972C192.934 133.734 195.376 136.176 198.676 136.176C201.052 136.176 202.724 134.9 203.428 133.316V136H204.968V119.72H203.428V126.584C202.658 125 200.854 123.812 198.698 123.812C195.376 123.812 192.934 126.21 192.934 129.972ZM203.428 129.994C203.428 132.986 201.426 134.834 198.962 134.834C196.432 134.834 194.496 133.008 194.496 129.972C194.496 126.914 196.432 125.154 198.962 125.154C201.426 125.154 203.428 127.002 203.428 129.994ZM221.275 120.622H216.721V136H221.275C226.401 136 229.415 133.118 229.415 128.344C229.415 123.526 226.401 120.622 221.275 120.622ZM218.261 134.724V121.898H221.275C225.631 121.898 227.853 124.362 227.853 128.344C227.853 132.304 225.631 134.724 221.275 134.724H218.261ZM232.65 129.972C232.65 133.734 235.092 136.176 238.37 136.176C240.768 136.176 242.44 134.878 243.144 133.338V136H244.684V123.988H243.144V126.628C242.462 125.11 240.812 123.812 238.392 123.812C235.092 123.812 232.65 126.21 232.65 129.972ZM243.144 129.994C243.144 132.986 241.142 134.834 238.678 134.834C236.148 134.834 234.212 133.008 234.212 129.972C234.212 126.914 236.148 125.154 238.678 125.154C241.142 125.154 243.144 127.002 243.144 129.994ZM249.74 132.744C249.74 135.142 250.862 136 252.952 136H254.602V134.68H253.194C251.808 134.68 251.302 134.218 251.302 132.744V125.286H254.602V123.988H251.302V120.974H249.74V123.988H248.068V125.286H249.74V132.744ZM257.538 129.972C257.538 133.734 259.98 136.176 263.258 136.176C265.656 136.176 267.328 134.878 268.032 133.338V136H269.572V123.988H268.032V126.628C267.35 125.11 265.7 123.812 263.28 123.812C259.98 123.812 257.538 126.21 257.538 129.972ZM268.032 129.994C268.032 132.986 266.03 134.834 263.566 134.834C261.036 134.834 259.1 133.008 259.1 129.972C259.1 126.914 261.036 125.154 263.566 125.154C266.03 125.154 268.032 127.002 268.032 129.994ZM281.325 136H282.865V120.622H281.325V136ZM296.45 136H297.968V128.96C297.968 125.44 295.812 123.768 293.084 123.768C291.302 123.768 289.762 124.538 288.992 126.034V123.988H287.452V136H288.992V129.444C288.992 126.518 290.554 125.11 292.798 125.11C294.998 125.11 296.45 126.474 296.45 129.136V136ZM315.089 134.328L310.051 120.622H308.379L314.209 136H315.969L321.799 120.622H320.171L315.089 134.328ZM324.509 129.972C324.509 133.734 326.951 136.176 330.229 136.176C332.627 136.176 334.299 134.878 335.003 133.338V136H336.543V123.988H335.003V126.628C334.321 125.11 332.671 123.812 330.251 123.812C326.951 123.812 324.509 126.21 324.509 129.972ZM335.003 129.994C335.003 132.986 333.001 134.834 330.537 134.834C328.007 134.834 326.071 133.008 326.071 129.972C326.071 126.914 328.007 125.154 330.537 125.154C333.001 125.154 335.003 127.002 335.003 129.994ZM342.699 129.29C342.699 126.276 344.393 125.374 346.395 125.374H346.813V123.768C344.745 123.768 343.359 124.648 342.699 126.122V123.988H341.159V136H342.699V129.29ZM350.229 136H351.769V123.988H350.229V136ZM350.999 121.722C351.615 121.722 352.121 121.238 352.121 120.578C352.121 119.918 351.615 119.456 350.999 119.456C350.383 119.456 349.877 119.918 349.877 120.578C349.877 121.238 350.383 121.722 350.999 121.722ZM355.653 129.972C355.653 133.734 358.095 136.176 361.373 136.176C363.771 136.176 365.443 134.878 366.147 133.338V136H367.687V123.988H366.147V126.628C365.465 125.11 363.815 123.812 361.395 123.812C358.095 123.812 355.653 126.21 355.653 129.972ZM366.147 129.994C366.147 132.986 364.145 134.834 361.681 134.834C359.151 134.834 357.215 133.008 357.215 129.972C357.215 126.914 359.151 125.154 361.681 125.154C364.145 125.154 366.147 127.002 366.147 129.994ZM373.82 126.65V119.72H372.302V136H373.82V133.36C374.546 134.922 376.196 136.176 378.594 136.176C381.872 136.176 384.314 133.734 384.314 129.972C384.314 126.21 381.894 123.812 378.594 123.812C376.24 123.812 374.568 125.066 373.82 126.65ZM382.752 129.972C382.752 133.008 380.816 134.834 378.286 134.834C375.844 134.834 373.82 132.986 373.82 129.994C373.82 127.002 375.844 125.154 378.286 125.154C380.816 125.154 382.752 126.914 382.752 129.972ZM388.248 136H389.788V119.72H388.248V136ZM399.501 125.132C401.723 125.132 403.747 126.54 403.681 129.334H395.233C395.409 126.54 397.323 125.132 399.501 125.132ZM405.067 132.194H403.439C402.999 133.8 401.613 134.878 399.567 134.878C397.323 134.878 395.365 133.404 395.233 130.588H405.199C405.243 130.17 405.243 129.862 405.243 129.378C405.243 126.32 403.087 123.812 399.567 123.812C396.113 123.812 393.671 126.166 393.671 129.994C393.671 133.8 396.157 136.176 399.567 136.176C402.581 136.176 404.517 134.46 405.067 132.194ZM424.57 125.088C424.57 126.958 423.448 128.322 420.94 128.322H417.838V121.92H420.918C423.514 121.92 424.57 123.152 424.57 125.088ZM416.298 120.622V136H417.838V129.576H420.676L424.482 136H426.33L422.37 129.466C424.966 128.982 426.154 127.2 426.154 125.088C426.154 122.558 424.482 120.622 420.918 120.622H416.298ZM429.606 129.972C429.606 133.734 432.048 136.176 435.326 136.176C437.724 136.176 439.396 134.878 440.1 133.338V136H441.64V123.988H440.1V126.628C439.418 125.11 437.768 123.812 435.348 123.812C432.048 123.812 429.606 126.21 429.606 129.972ZM440.1 129.994C440.1 132.986 438.098 134.834 435.634 134.834C433.104 134.834 431.168 133.008 431.168 129.972C431.168 126.914 433.104 125.154 435.634 125.154C438.098 125.154 440.1 127.002 440.1 129.994ZM446.696 132.744C446.696 135.142 447.818 136 449.908 136H451.558V134.68H450.15C448.764 134.68 448.258 134.218 448.258 132.744V125.286H451.558V123.988H448.258V120.974H446.696V123.988H445.024V125.286H446.696V132.744ZM460.324 125.132C462.546 125.132 464.57 126.54 464.504 129.334H456.056C456.232 126.54 458.146 125.132 460.324 125.132ZM465.89 132.194H464.262C463.822 133.8 462.436 134.878 460.39 134.878C458.146 134.878 456.188 133.404 456.056 130.588H466.022C466.066 130.17 466.066 129.862 466.066 129.378C466.066 126.32 463.91 123.812 460.39 123.812C456.936 123.812 454.494 126.166 454.494 129.994C454.494 133.8 456.98 136.176 460.39 136.176C463.404 136.176 465.34 134.46 465.89 132.194ZM477.12 136H478.66V123.922L484.072 136H485.194L490.606 123.878V136H492.146V120.82H490.496L484.622 133.976L478.748 120.82H477.12V136ZM496.036 129.972C496.036 133.734 498.478 136.176 501.756 136.176C504.154 136.176 505.826 134.878 506.53 133.338V136H508.07V123.988H506.53V126.628C505.848 125.11 504.198 123.812 501.778 123.812C498.478 123.812 496.036 126.21 496.036 129.972ZM506.53 129.994C506.53 132.986 504.528 134.834 502.064 134.834C499.534 134.834 497.598 133.008 497.598 129.972C497.598 126.914 499.534 125.154 502.064 125.154C504.528 125.154 506.53 127.002 506.53 129.994ZM521.002 132.81C520.936 128.564 513.83 130.302 513.83 127.046C513.83 125.99 514.842 125.132 516.448 125.132C518.274 125.132 519.264 126.144 519.352 127.486H520.892C520.76 125.176 519.066 123.812 516.492 123.812C513.962 123.812 512.268 125.286 512.268 127.068C512.268 131.578 519.484 129.84 519.484 132.81C519.484 133.954 518.516 134.878 516.8 134.878C514.842 134.878 513.698 133.932 513.566 132.612H511.982C512.18 134.812 514.094 136.176 516.822 136.176C519.308 136.176 521.002 134.746 521.002 132.81ZM525.44 132.744C525.44 135.142 526.562 136 528.652 136H530.302V134.68H528.894C527.508 134.68 527.002 134.218 527.002 132.744V125.286H530.302V123.988H527.002V120.974H525.44V123.988H523.768V125.286H525.44V132.744ZM539.068 125.132C541.29 125.132 543.314 126.54 543.248 129.334H534.8C534.976 126.54 536.89 125.132 539.068 125.132ZM544.634 132.194H543.006C542.566 133.8 541.18 134.878 539.134 134.878C536.89 134.878 534.932 133.404 534.8 130.588H544.766C544.81 130.17 544.81 129.862 544.81 129.378C544.81 126.32 542.654 123.812 539.134 123.812C535.68 123.812 533.238 126.166 533.238 129.994C533.238 133.8 535.724 136.176 539.134 136.176C542.148 136.176 544.084 134.46 544.634 132.194ZM550.268 129.29C550.268 126.276 551.962 125.374 553.964 125.374H554.382V123.768C552.314 123.768 550.928 124.648 550.268 126.122V123.988H548.728V136H550.268V129.29Z" fill="#0353A4"/>
<path d="M0.0615234 138.2H554.932V139.3H0.0615234V138.2Z" fill="#0353A4"/>
<path d="M276.703 45.8947L277.275 45.8555C278.291 45.8555 279.272 46.2234 280.038 46.8911C280.804 47.5588 281.301 48.4811 281.44 49.4875L281.479 50.0592V64.0658L295.491 64.0714C296.507 64.0715 297.488 64.4394 298.254 65.107C299.019 65.7747 299.517 66.697 299.656 67.7034L299.695 68.2751C299.695 69.2909 299.327 70.2724 298.659 71.0379C297.991 71.8035 297.069 72.3014 296.063 72.4396L295.491 72.4788L281.479 72.4732V86.4911C281.479 87.5069 281.111 88.4883 280.443 89.2539C279.776 90.0195 278.853 90.5174 277.847 90.6555L277.275 90.6948C276.259 90.6947 275.278 90.3268 274.512 89.6592C273.747 88.9915 273.249 88.0692 273.111 87.0628L273.071 86.4911V72.4732L259.059 72.4788C258.043 72.4788 257.062 72.1109 256.296 71.4432C255.531 70.7755 255.033 69.8532 254.895 68.8468L254.855 68.2751C254.856 67.2593 255.223 66.2778 255.891 65.5123C256.559 64.7467 257.481 64.2488 258.487 64.1107L259.059 64.0714L273.071 64.0658V50.0592C273.071 49.0433 273.439 48.0619 274.107 47.2963C274.775 46.5308 275.697 46.0329 276.703 45.8947L277.275 45.8555L276.703 45.8947Z" fill="#0353A4"/>
<circle cx="277" cy="68" r="29" stroke="#0353A4" stroke-width="4"/>
</svg>
