<svg width="30" height="30" viewBox="0 0 30 30" fill="none" xmlns="http://www.w3.org/2000/svg">
<g filter="url(#filter0_d)">
<path d="M7.5 3C6.83696 3 6.20107 3.26339 5.73223 3.73223C5.26339 4.20107 5 4.83696 5 5.5L5 20.5C5 21.163 5.26339 21.7989 5.73223 22.2678C6.20107 22.7366 6.83696 23 7.5 23H22.5C23.163 23 23.7989 22.7366 24.2678 22.2678C24.7366 21.7989 25 21.163 25 20.5V5.5C25 4.83696 24.7366 4.20107 24.2678 3.73223C23.7989 3.26339 23.163 3 22.5 3H7.5ZM20.0375 9.2125C20.2111 9.38594 20.3098 9.62055 20.3124 9.86594C20.315 10.1113 20.2212 10.348 20.0513 10.525L15.0612 16.7625C14.9755 16.8549 14.872 16.929 14.7569 16.9805C14.6418 17.0319 14.5176 17.0596 14.3916 17.062C14.2655 17.0643 14.1403 17.0412 14.0234 16.994C13.9066 16.9469 13.8004 16.8766 13.7113 16.7875L10.405 13.48C10.3129 13.3942 10.239 13.2907 10.1878 13.1757C10.1365 13.0607 10.109 12.9365 10.1068 12.8107C10.1045 12.6848 10.1277 12.5597 10.1748 12.443C10.222 12.3263 10.2922 12.2202 10.3812 12.1312C10.4702 12.0422 10.5763 11.972 10.693 11.9248C10.8097 11.8777 10.9348 11.8545 11.0607 11.8568C11.1865 11.859 11.3107 11.8865 11.4257 11.9378C11.5407 11.989 11.6442 12.0629 11.73 12.155L14.3475 14.7712L18.6888 9.24C18.7743 9.14746 18.8777 9.07313 18.9927 9.02146C19.1077 8.96979 19.2319 8.94183 19.3579 8.93926C19.4839 8.9367 19.6092 8.95957 19.7262 9.00652C19.8431 9.05347 19.9495 9.12352 20.0387 9.2125H20.0375Z" fill="#023E7D"/>
</g>
<defs>
<filter id="filter0_d" x="0" y="0" width="30" height="30" filterUnits="userSpaceOnUse" color-interpolation-filters="sRGB">
<feFlood flood-opacity="0" result="BackgroundImageFix"/>
<feColorMatrix in="SourceAlpha" type="matrix" values="0 0 0 0 0 0 0 0 0 0 0 0 0 0 0 0 0 0 127 0"/>
<feOffset dy="2"/>
<feGaussianBlur stdDeviation="2.5"/>
<feColorMatrix type="matrix" values="0 0 0 0 0.00784314 0 0 0 0 0.243137 0 0 0 0 0.490196 0 0 0 0.5 0"/>
<feBlend mode="normal" in2="BackgroundImageFix" result="effect1_dropShadow"/>
<feBlend mode="normal" in="SourceGraphic" in2="effect1_dropShadow" result="shape"/>
</filter>
</defs>
</svg>
