<svg width="35" height="34" viewBox="0 0 35 34" fill="none" xmlns="http://www.w3.org/2000/svg">
<g filter="url(#filter0_d)">
<path d="M14.5403 3.89149C14.3405 3.65843 14.0702 3.49692 13.7703 3.43149C13.4815 3.36639 13.1793 3.39801 12.9103 3.52149C12.6317 3.66 12.4016 3.87964 12.2503 4.15149C12.0827 4.43614 11.9963 4.76121 12.0003 5.09149C11.9924 5.53055 12.1454 5.95733 12.4303 6.29149C12.5593 6.44521 12.7198 6.56941 12.9009 6.65567C13.0821 6.74194 13.2797 6.78826 13.4803 6.79149C13.78 6.79077 14.0714 6.69248 14.3103 6.51149C14.5644 6.31362 14.7555 6.04608 14.8603 5.74149C14.9751 5.42114 15.0027 5.07602 14.9403 4.74149C14.885 4.4276 14.7469 4.13416 14.5403 3.89149V3.89149ZM13.8703 5.54149C13.7939 5.62223 13.6972 5.68095 13.5903 5.71149C13.4865 5.74654 13.3741 5.74654 13.2703 5.71149C13.1528 5.65391 13.0579 5.55893 13.0003 5.44149C12.9393 5.33508 12.9082 5.21414 12.9103 5.09149C12.9071 4.93004 12.9642 4.77319 13.0703 4.65149C13.1163 4.59517 13.1743 4.54979 13.24 4.51866C13.3057 4.48752 13.3776 4.47141 13.4503 4.47149C13.5611 4.47396 13.6689 4.50871 13.7603 4.57149C13.8516 4.64446 13.9209 4.7414 13.9603 4.85149C13.9904 4.97299 13.9904 5.09999 13.9603 5.22149C13.9595 5.33429 13.9284 5.4448 13.8703 5.54149Z" fill="white"/>
<path d="M10.0012 3.86805C9.79875 3.63825 9.52955 3.47742 9.23122 3.40805C8.94244 3.34295 8.64027 3.37457 8.37122 3.49805C8.09264 3.63656 7.86254 3.8562 7.71122 4.12805C7.54368 4.4127 7.45723 4.73778 7.46122 5.06805C7.45338 5.50711 7.60631 5.93389 7.89122 6.26805C8.02019 6.42177 8.18069 6.54597 8.36185 6.63224C8.54301 6.7185 8.7406 6.76482 8.94122 6.76805C9.24096 6.76733 9.53231 6.66904 9.77122 6.48805C10.0226 6.28748 10.213 6.02084 10.3212 5.71805C10.436 5.3977 10.4637 5.05258 10.4012 4.71805C10.3459 4.40416 10.2079 4.11072 10.0012 3.86805V3.86805ZM9.30122 5.51805C9.21931 5.60195 9.11529 5.66089 9.00122 5.68805C8.89744 5.72311 8.78501 5.72311 8.68122 5.68805C8.58083 5.63597 8.49753 5.55614 8.44122 5.45805C8.38021 5.35164 8.34911 5.2307 8.35122 5.10805C8.34805 4.9466 8.40509 4.78975 8.51122 4.66805C8.55724 4.61173 8.61521 4.56635 8.68094 4.53522C8.74666 4.50409 8.8185 4.48797 8.89122 4.48805C9.00209 4.49052 9.10982 4.52527 9.20122 4.58805C9.29258 4.66102 9.36183 4.75797 9.40122 4.86805C9.4313 4.98955 9.4313 5.11655 9.40122 5.23805C9.39071 5.33803 9.35642 5.43403 9.30122 5.51805V5.51805Z" fill="white"/>
<path d="M19.111 3.89974C18.9125 3.67014 18.6465 3.50914 18.351 3.43974C18.0614 3.37217 17.7574 3.40752 17.491 3.53974C17.2079 3.67065 16.9734 3.88764 16.821 4.15974C16.6481 4.46405 16.5616 4.80985 16.571 5.15974C16.5776 5.58115 16.7295 5.98736 17.001 6.30974C17.1313 6.46113 17.2923 6.5831 17.4733 6.66758C17.6544 6.75205 17.8513 6.7971 18.051 6.79974C18.3473 6.79686 18.6348 6.69869 18.871 6.51974C19.1249 6.32578 19.3161 6.0615 19.421 5.75974C19.5318 5.43867 19.5627 5.09543 19.511 4.75974C19.457 4.44247 19.3188 4.14549 19.111 3.89974V3.89974ZM18.451 5.54974C18.3706 5.63049 18.2707 5.68905 18.161 5.71974C18.0605 5.75402 17.9515 5.75402 17.851 5.71974C17.7434 5.6746 17.6549 5.59323 17.601 5.48974C17.5413 5.38644 17.5102 5.26906 17.511 5.14974C17.5108 4.98576 17.5673 4.82676 17.671 4.69974C17.7198 4.64418 17.7798 4.59946 17.8469 4.56846C17.9141 4.53746 17.987 4.52086 18.061 4.51974C18.1706 4.52107 18.2765 4.55989 18.361 4.62974C18.4564 4.69877 18.5267 4.79709 18.561 4.90974C18.6006 5.02647 18.6006 5.15301 18.561 5.26974C18.5448 5.36986 18.5072 5.46533 18.451 5.54974Z" fill="white"/>
<path d="M13.1519 20.2597C13.2388 20.3977 13.3688 20.5032 13.5219 20.5597H13.5819C13.6775 20.5799 13.7763 20.5799 13.8719 20.5597C13.9657 20.5484 14.057 20.5214 14.1419 20.4797L15.0719 20.0797C15.2329 20.1827 15.3999 20.2762 15.5719 20.3597L15.6719 21.3597C15.7039 21.5141 15.7845 21.6543 15.9019 21.7597C16.0284 21.8684 16.1857 21.9348 16.3519 21.9497H18.5119C18.6952 21.9546 18.8737 21.8904 19.0119 21.7697C19.0804 21.7164 19.1378 21.6501 19.1807 21.5746C19.2236 21.4991 19.2512 21.4159 19.2619 21.3297L19.3519 20.3297C19.528 20.2517 19.6984 20.1615 19.8619 20.0597L20.8119 20.4597C20.9645 20.51 21.1293 20.51 21.2819 20.4597C21.4354 20.4196 21.5742 20.3363 21.6819 20.2197L22.7619 18.4997C22.8513 18.353 22.88 18.1772 22.8419 18.0097C22.8024 17.8378 22.6987 17.6875 22.5519 17.5897L21.7619 17.0297C21.7819 16.8436 21.7819 16.6558 21.7619 16.4697L22.6119 15.9097C22.7559 15.8136 22.8592 15.6675 22.9019 15.4997C22.9441 15.3335 22.9189 15.1574 22.8319 15.0097L21.8219 13.3997C21.7224 13.2461 21.569 13.1355 21.3919 13.0897C21.2118 13.0403 21.0199 13.0581 20.8519 13.1397L19.9119 13.5397C19.7484 13.4378 19.578 13.3476 19.4019 13.2697L19.3119 12.2697C19.291 12.1085 19.2086 11.9616 19.0819 11.8597C18.9575 11.7554 18.8037 11.6924 18.6419 11.6797H16.4719C16.2865 11.6811 16.107 11.7444 15.9619 11.8597C15.8273 11.9735 15.7415 12.1345 15.7219 12.3097L15.6319 13.3097C15.4536 13.3871 15.2829 13.4808 15.1219 13.5897L14.1219 13.1797C13.9726 13.1226 13.8096 13.1121 13.6543 13.1496C13.4989 13.1871 13.3586 13.2708 13.2519 13.3897L12.1819 15.0897C12.0918 15.2398 12.0632 15.4189 12.1019 15.5897C12.1456 15.7624 12.2527 15.9123 12.4019 16.0097L13.2519 16.5697C13.2418 16.7529 13.2418 16.9365 13.2519 17.1197L12.3619 17.6797C12.2743 17.7183 12.1965 17.7761 12.1342 17.8488C12.0718 17.9215 12.0266 18.0072 12.0019 18.0997C11.9821 18.181 11.9791 18.2654 11.9928 18.3479C12.0066 18.4304 12.0369 18.5092 12.0819 18.5797L13.1519 20.2597ZM14.5119 17.2597V17.1597C14.4618 16.9156 14.4618 16.6638 14.5119 16.4197L14.5819 15.9797L13.4519 15.2997L14.0519 14.2997L15.2819 14.8297L15.6419 14.5597C15.8717 14.3973 16.1201 14.263 16.3819 14.1597L16.8119 13.9997L16.9219 12.7797H18.1019L18.2219 13.9997L18.6319 14.1597C18.9036 14.266 19.162 14.4036 19.4019 14.5697L19.7619 14.8197L21.0019 14.3597L21.6119 15.2997L20.5119 16.0197L20.5619 16.3697V16.4597C20.612 16.7072 20.612 16.9622 20.5619 17.2097L20.5019 17.6297L21.5019 18.3597L20.8919 19.3597L19.6619 18.8297L19.3019 19.0997C19.0769 19.2698 18.8274 19.4047 18.5619 19.4997L18.1419 19.6597L18.0219 20.8797H16.8719L16.7519 19.6597L16.3419 19.4997C16.07 19.3896 15.8117 19.2486 15.5719 19.0797L15.2119 18.8397L14.0019 19.3097L13.4119 18.3797L14.1719 17.8997L14.5619 17.6397L14.5119 17.2597Z" fill="white"/>
<path d="M15.831 18.3487C16.1862 18.6535 16.6188 18.8542 17.081 18.9287C17.5533 19.0142 18.0399 18.9728 18.491 18.8087C18.9239 18.6477 19.302 18.3668 19.581 17.9987C19.8824 17.5959 20.021 17.0943 19.9692 16.5939C19.9173 16.0935 19.6787 15.631 19.301 15.2987C18.8356 14.8845 18.2339 14.6567 17.611 14.6587V14.6587C17.1184 14.6376 16.6298 14.7554 16.201 14.9987C15.8085 15.2325 15.4977 15.5817 15.311 15.9987C15.1214 16.3867 15.0719 16.8283 15.171 17.2487C15.2715 17.6749 15.5021 18.0594 15.831 18.3487Z" fill="white"/>
<path d="M30.2301 0.88C30.0031 0.609001 29.7204 0.390118 29.4011 0.23826C29.0819 0.0864015 28.7336 0.00513636 28.3801 0L6.62014 0C6.26666 0.00513636 5.91843 0.0864015 5.59918 0.23826C5.27993 0.390118 4.99717 0.609001 4.77014 0.88C4.26628 1.47072 3.99282 2.22361 4.00014 3V23C3.99523 23.773 4.26854 24.5219 4.77014 25.11C4.99622 25.3828 5.27857 25.6036 5.59786 25.7572C5.91716 25.9108 6.26588 25.9936 6.62014 26H28.3801C28.7336 25.9949 29.0819 25.9136 29.4011 25.7617C29.7204 25.6099 30.0031 25.391 30.2301 25.12C30.734 24.5293 31.0075 23.7764 31.0001 23V3C31.0075 2.22361 30.734 1.47072 30.2301 0.88V0.88ZM29.3201 23C29.3214 23.277 29.2259 23.5458 29.0501 23.76C28.9667 23.8561 28.8639 23.9334 28.7484 23.9869C28.6329 24.0403 28.5074 24.0686 28.3801 24.07H6.62014C6.38187 24.0562 6.15886 23.9483 6.00014 23.77C5.8041 23.5603 5.69045 23.2869 5.68014 23V9.32H29.3201V23ZM29.3201 7.77H5.68014V3C5.69045 2.71314 5.8041 2.43967 6.00014 2.23C6.08356 2.1339 6.1864 2.05658 6.3019 2.00314C6.41739 1.94971 6.5429 1.92137 6.67014 1.92H28.3801C28.5074 1.92137 28.6329 1.94971 28.7484 2.00314C28.8639 2.05658 28.9667 2.1339 29.0501 2.23C29.2259 2.44418 29.3214 2.71296 29.3201 2.99V7.77Z" fill="white"/>
</g>
<defs>
<filter id="filter0_d" x="0" y="0" width="35.0003" height="34" filterUnits="userSpaceOnUse" color-interpolation-filters="sRGB">
<feFlood flood-opacity="0" result="BackgroundImageFix"/>
<feColorMatrix in="SourceAlpha" type="matrix" values="0 0 0 0 0 0 0 0 0 0 0 0 0 0 0 0 0 0 127 0"/>
<feOffset dy="4"/>
<feGaussianBlur stdDeviation="2"/>
<feColorMatrix type="matrix" values="0 0 0 0 0 0 0 0 0 0 0 0 0 0 0 0 0 0 0.25 0"/>
<feBlend mode="normal" in2="BackgroundImageFix" result="effect1_dropShadow"/>
<feBlend mode="normal" in="SourceGraphic" in2="effect1_dropShadow" result="shape"/>
</filter>
</defs>
</svg>
