<svg width="27" height="27" viewBox="0 0 27 27" fill="none" xmlns="http://www.w3.org/2000/svg">
<path d="M13.1557 0.0236249L13.5 0C14.1117 2.57948e-05 14.7027 0.221544 15.1636 0.623589C15.6246 1.02563 15.9244 1.58101 16.0076 2.187L16.0312 2.53125V10.9654L24.4688 10.9688C25.0804 10.9688 25.6714 11.1903 26.1324 11.5923C26.5934 11.9944 26.8932 12.5498 26.9764 13.1557L27 13.5C27 14.1117 26.7785 14.7027 26.3764 15.1636C25.9744 15.6246 25.419 15.9244 24.813 16.0076L24.4688 16.0312L16.0312 16.0279V24.4688C16.0312 25.0804 15.8097 25.6714 15.4077 26.1324C15.0056 26.5934 14.4502 26.8932 13.8443 26.9764L13.5 27C12.8883 27 12.2973 26.7785 11.8364 26.3764C11.3754 25.9744 11.0756 25.419 10.9924 24.813L10.9688 24.4688V16.0279L2.53125 16.0312C1.91957 16.0312 1.3286 15.8097 0.867609 15.4077C0.406623 15.0056 0.106813 14.4502 0.0236249 13.8443L0 13.5C2.57948e-05 12.8883 0.221544 12.2973 0.623589 11.8364C1.02563 11.3754 1.58101 11.0756 2.187 10.9924L2.53125 10.9688L10.9688 10.9654V2.53125C10.9688 1.91957 11.1903 1.3286 11.5923 0.867609C11.9944 0.406623 12.5498 0.106813 13.1557 0.0236249L13.5 0L13.1557 0.0236249Z" fill="#023E7D"/>
</svg>
