<svg width="20" height="28" viewBox="0 0 20 28" fill="none" xmlns="http://www.w3.org/2000/svg">
<g filter="url(#filter0_d)">
<path d="M3.15527 7.94629H9.3125C9.24479 7.59082 9.13053 7.26921 8.96973 6.98145C8.81738 6.68522 8.59733 6.43555 8.30957 6.23242C8.03027 6.02083 7.67904 5.86003 7.25586 5.75C6.84115 5.63151 6.34603 5.57227 5.77051 5.57227H3.15527V3.79492H14.6191V5.57227H10.4551C10.7005 5.88542 10.8994 6.24089 11.0518 6.63867C11.2126 7.02799 11.3184 7.46387 11.3691 7.94629H14.6191V9.72363H11.3057C11.1279 10.7393 10.709 11.6068 10.0488 12.3262C9.39714 13.0371 8.56771 13.528 7.56055 13.7988V13.8496C7.84831 13.985 8.11068 14.1416 8.34766 14.3193C8.58464 14.4971 8.81315 14.7044 9.0332 14.9414C9.25326 15.1699 9.46908 15.4365 9.68066 15.7412C9.90072 16.0459 10.1335 16.3929 10.3789 16.7822L13.6162 22H11.2041L8.30957 17.1504C8.03027 16.6849 7.76367 16.2744 7.50977 15.9189C7.26432 15.5635 6.99772 15.2673 6.70996 15.0303C6.43066 14.7933 6.11751 14.6156 5.77051 14.4971C5.43197 14.3786 5.03418 14.3193 4.57715 14.3193H3.15527V12.5801H5.75781C6.18945 12.5801 6.59993 12.5124 6.98926 12.377C7.37858 12.2331 7.72559 12.0384 8.03027 11.793C8.34342 11.5391 8.60579 11.2386 8.81738 10.8916C9.03743 10.5361 9.19401 10.1468 9.28711 9.72363H3.15527V7.94629Z" fill="#023E7D"/>
</g>
<defs>
<filter id="filter0_d" x="0.15625" y="0.796875" width="19.4639" height="26.2051" filterUnits="userSpaceOnUse" color-interpolation-filters="sRGB">
<feFlood flood-opacity="0" result="BackgroundImageFix"/>
<feColorMatrix in="SourceAlpha" type="matrix" values="0 0 0 0 0 0 0 0 0 0 0 0 0 0 0 0 0 0 127 0"/>
<feOffset dx="1" dy="1"/>
<feGaussianBlur stdDeviation="2"/>
<feColorMatrix type="matrix" values="0 0 0 0 0.00784314 0 0 0 0 0.243137 0 0 0 0 0.490196 0 0 0 0.29 0"/>
<feBlend mode="normal" in2="BackgroundImageFix" result="effect1_dropShadow"/>
<feBlend mode="normal" in="SourceGraphic" in2="effect1_dropShadow" result="shape"/>
</filter>
</defs>
</svg>
