<svg width="78" height="78" viewBox="0 0 78 78" fill="none" xmlns="http://www.w3.org/2000/svg">
<path d="M61.3204 23.6594C60.4121 22.7816 58.9382 22.7801 58.0299 23.6556L30.1119 50.5164L20.0392 39.9629C19.1688 39.0515 17.6972 38.9924 16.7509 39.8319C15.8053 40.6715 15.7447 42.0918 16.6151 43.004L28.3285 55.2757C28.7574 55.7254 29.3578 55.9866 29.9908 55.9993C30.0078 56 30.0242 56 30.0405 56C30.6557 56 31.2475 55.7643 31.6834 55.3452L61.3159 26.8344C62.2265 25.9589 62.2281 24.5372 61.3204 23.6594Z" fill="#0353A4"/>
<path d="M39 76.5C59.7107 76.5 76.5 59.7107 76.5 39C76.5 18.2893 59.7107 1.5 39 1.5C18.2893 1.5 1.5 18.2893 1.5 39C1.5 59.7107 18.2893 76.5 39 76.5Z" stroke="#0353A4" stroke-width="3"/>
</svg>
