<svg width="34" height="35" viewBox="0 0 34 35" fill="none" xmlns="http://www.w3.org/2000/svg">
<g filter="url(#filter0_d)">
<path d="M16.9997 25.6654C10.5562 25.6654 5.33301 20.4422 5.33301 13.9987C5.33301 7.5552 10.5562 2.33203 16.9997 2.33203C23.4432 2.33203 28.6663 7.5552 28.6663 13.9987C28.6663 20.4422 23.4432 25.6654 16.9997 25.6654ZM16.9997 23.332C19.475 23.332 21.849 22.3487 23.5993 20.5984C25.3497 18.848 26.333 16.4741 26.333 13.9987C26.333 11.5233 25.3497 9.14937 23.5993 7.39903C21.849 5.6487 19.475 4.66536 16.9997 4.66536C14.5243 4.66536 12.1504 5.6487 10.4 7.39903C8.64967 9.14937 7.66634 11.5233 7.66634 13.9987C7.66634 16.4741 8.64967 18.848 10.4 20.5984C12.1504 22.3487 14.5243 23.332 16.9997 23.332ZM18.1663 13.9987H22.833V16.332H15.833V8.16537H18.1663V13.9987Z" fill="#023E7D"/>
</g>
<defs>
<filter id="filter0_d" x="-2" y="-1" width="38" height="38" filterUnits="userSpaceOnUse" color-interpolation-filters="sRGB">
<feFlood flood-opacity="0" result="BackgroundImageFix"/>
<feColorMatrix in="SourceAlpha" type="matrix" values="0 0 0 0 0 0 0 0 0 0 0 0 0 0 0 0 0 0 127 0"/>
<feOffset dy="4"/>
<feGaussianBlur stdDeviation="2.5"/>
<feColorMatrix type="matrix" values="0 0 0 0 0.00784314 0 0 0 0 0.243137 0 0 0 0 0.490196 0 0 0 0.5 0"/>
<feBlend mode="normal" in2="BackgroundImageFix" result="effect1_dropShadow"/>
<feBlend mode="normal" in="SourceGraphic" in2="effect1_dropShadow" result="shape"/>
</filter>
</defs>
</svg>
