<svg width="22" height="21" viewBox="0 0 22 21" fill="none" xmlns="http://www.w3.org/2000/svg">
<path d="M7.67578 4.62215H9.84082V14.5333C9.84082 14.6622 9.94629 14.7677 10.0752 14.7677H11.833C11.9619 14.7677 12.0674 14.6622 12.0674 14.5333V4.62215H14.2383C14.4346 4.62215 14.543 4.39657 14.4229 4.24422L11.1416 0.0899264C11.1197 0.0619134 11.0917 0.0392582 11.0597 0.0236776C11.0277 0.00809713 10.9926 0 10.957 0C10.9215 0 10.8864 0.00809713 10.8544 0.0236776C10.8224 0.0392582 10.7944 0.0619134 10.7725 0.0899264L7.49121 4.24129C7.37109 4.39657 7.47949 4.62215 7.67578 4.62215ZM21.6797 13.6544H19.9219C19.793 13.6544 19.6875 13.7598 19.6875 13.8888V18.4005H2.22656V13.8888C2.22656 13.7598 2.12109 13.6544 1.99219 13.6544H0.234375C0.105469 13.6544 0 13.7598 0 13.8888V19.6895C0 20.2081 0.418945 20.627 0.9375 20.627H20.9766C21.4951 20.627 21.9141 20.2081 21.9141 19.6895V13.8888C21.9141 13.7598 21.8086 13.6544 21.6797 13.6544Z" fill="#420F8D"/>
</svg>
