<svg width="60" height="52" viewBox="0 0 60 52" fill="none" xmlns="http://www.w3.org/2000/svg">
<path d="M53 24L39 24" stroke="#023E7D" stroke-width="2" stroke-linecap="round" stroke-linejoin="round"/>
<path d="M51 17L39 17" stroke="#023E7D" stroke-width="2" stroke-linecap="round" stroke-linejoin="round"/>
<path d="M48 11L39 11" stroke="#023E7D" stroke-width="2" stroke-linecap="round" stroke-linejoin="round"/>
<path d="M18 9H33C33.5523 9 34 9.44772 34 10V25C34 25.5523 33.5523 26 33 26H24.1981C24.5409 26.3179 24.8687 26.6516 25.1805 27H33C34.1046 27 35 26.1046 35 25V10C35 8.89543 34.1046 8 33 8H18C16.8954 8 16 8.89543 16 10V22.1322C16.337 22.1771 16.6705 22.2332 17 22.3001V10C17 9.44772 17.4477 9 18 9Z" fill="#023E7D"/>
<path fill-rule="evenodd" clip-rule="evenodd" d="M16 1H56C57.6569 1 59 2.34315 59 4V34C59 35.6569 57.6569 37 56 37H28.9176C28.8803 37.3372 28.8306 37.6707 28.769 38H56C58.2091 38 60 36.2091 60 34V4C60 1.79086 58.2091 0 56 0H16C13.7909 0 12 1.79086 12 4V22.4581C12.3286 22.3702 12.6621 22.2943 13 22.231V4C13 2.34315 14.3431 1 16 1Z" fill="#023E7D"/>
<path d="M18.5131 44L14.3049 39.2865L10.4869 44H6.08361L12.2148 36.9398L6 30H10.4869L14.6951 34.6934L18.4852 30H22.8885L16.7852 37.0401L23 44H18.5131Z" fill="#023E7D"/>
<path d="M15 52C23.2843 52 30 45.2843 30 37C30 28.7157 23.2843 22 15 22C6.71573 22 0 28.7157 0 37C0.00964345 45.2803 6.71973 51.9904 15 52ZM15 23.6667C22.3638 23.6667 28.3333 29.6362 28.3333 37C28.3333 44.3638 22.3638 50.3333 15 50.3333C7.6362 50.3333 1.66667 44.3638 1.66667 37C1.67539 29.6398 7.63982 23.6754 15 23.6667Z" fill="#023E7D"/>
</svg>
