<svg width="62" height="56" viewBox="0 0 62 56" fill="none" xmlns="http://www.w3.org/2000/svg">
<path d="M3.85588 38.8122H10.3242M3.85588 42.6375H10.3242M3.85588 46.4678H10.3242M23.8219 5.81479V31.9M20.6392 38.8122H27.1075M20.6392 42.6375H27.1075M20.6392 46.4678H27.1075M33.194 12.3047L45.4197 7.55671M47.1365 40.1152L53.2197 37.971M48.489 43.7129L54.5722 41.5686M49.8415 47.3105L55.9248 45.1663M2.65906 1.05916H12.169C13.0853 1.05916 13.8281 1.77917 13.8281 2.66735V53.354C13.8281 54.2422 13.0853 54.9622 12.169 54.9622H2.65906C1.74279 54.9622 1 54.2422 1 53.354V2.66735C1 1.77917 1.74279 1.05916 2.65906 1.05916ZM18.9547 1.05916H28.4646C29.3809 1.05916 30.1237 1.77917 30.1237 2.66735V53.354C30.1237 54.2422 29.3809 54.9622 28.4646 54.9622H18.9547C18.0384 54.9622 17.2956 54.2422 17.2956 53.354V2.66735C17.2956 1.77917 18.0384 1.05916 18.9547 1.05916ZM31.9524 4.25029L40.8889 1.09742C41.7499 0.793648 42.7019 1.22398 43.0153 2.05859L60.8995 49.6885C61.2129 50.5231 60.7689 51.4459 59.9079 51.7497L50.9715 54.9026C50.1105 55.2064 49.1584 54.776 48.8451 53.9414L30.9608 6.31153C30.6475 5.47691 31.0914 4.55407 31.9524 4.25029ZM5.31604 5.81479H9.22667C9.77207 5.81479 10.2142 6.24337 10.2142 6.77205V10.5628C10.2142 11.0915 9.77207 11.52 9.22667 11.52H5.31604C4.77064 11.52 4.32851 11.0915 4.32851 10.5628V6.77205C4.32851 6.24337 4.77064 5.81479 5.31604 5.81479ZM38.9941 15.2461L42.6689 13.9496C43.1814 13.7688 43.7481 14.0249 43.9346 14.5217L45.2721 18.0838C45.4586 18.5806 45.1944 19.1299 44.6819 19.3107L41.0071 20.6073C40.4946 20.7881 39.9279 20.5319 39.7413 20.0351L38.4038 16.473C38.2173 15.9762 38.4815 15.4269 38.9941 15.2461Z" stroke="#023E7D" stroke-miterlimit="10"/>
</svg>
